<?xml version="1.0" encoding="UTF-8" ?>
<svg version="1.1" width="15" height="25" xmlns="http://www.w3.org/2000/svg" shape-rendering="crispEdges">
<rect x="9" y="0" width="1" height="1" fill="#000000" />
<rect x="8" y="1" width="1" height="1" fill="#000000" />
<rect x="9" y="1" width="1" height="1" fill="#000000" />
<rect x="7" y="2" width="1" height="1" fill="#000000" />
<rect x="8" y="2" width="1" height="1" fill="#000000" />
<rect x="9" y="2" width="1" height="1" fill="#000000" />
<rect x="1" y="3" width="1" height="1" fill="#000000" />
<rect x="2" y="3" width="1" height="1" fill="#000000" />
<rect x="3" y="3" width="1" height="1" fill="#000000" />
<rect x="4" y="3" width="1" height="1" fill="#000000" />
<rect x="5" y="3" width="1" height="1" fill="#000000" />
<rect x="6" y="3" width="1" height="1" fill="#000000" />
<rect x="7" y="3" width="1" height="1" fill="#000000" />
<rect x="8" y="3" width="1" height="1" fill="#000000" />
<rect x="9" y="3" width="1" height="1" fill="#000000" />
<rect x="10" y="3" width="1" height="1" fill="#000000" />
<rect x="2" y="4" width="1" height="1" fill="#000000" />
<rect x="3" y="4" width="1" height="1" fill="#000000" />
<rect x="4" y="4" width="1" height="1" fill="#000000" />
<rect x="5" y="4" width="1" height="1" fill="#000000" />
<rect x="6" y="4" width="1" height="1" fill="#000000" />
<rect x="7" y="4" width="1" height="1" fill="#000000" />
<rect x="8" y="4" width="1" height="1" fill="#000000" />
<rect x="9" y="4" width="1" height="1" fill="#000000" />
<rect x="10" y="4" width="1" height="1" fill="#000000" />
<rect x="11" y="4" width="1" height="1" fill="#000000" />
<rect x="3" y="5" width="1" height="1" fill="#000000" />
<rect x="4" y="5" width="1" height="1" fill="#000000" />
<rect x="5" y="5" width="1" height="1" fill="#000000" />
<rect x="6" y="5" width="1" height="1" fill="#000000" />
<rect x="7" y="5" width="1" height="1" fill="#000000" />
<rect x="8" y="5" width="1" height="1" fill="#000000" />
<rect x="9" y="5" width="1" height="1" fill="#000000" />
<rect x="10" y="5" width="1" height="1" fill="#000000" />
<rect x="11" y="5" width="1" height="1" fill="#000000" />
<rect x="12" y="5" width="1" height="1" fill="#000000" />
<rect x="3" y="6" width="1" height="1" fill="#000000" />
<rect x="4" y="6" width="1" height="1" fill="#000000" />
<rect x="5" y="6" width="1" height="1" fill="#000000" />
<rect x="6" y="6" width="1" height="1" fill="#000000" />
<rect x="7" y="6" width="1" height="1" fill="#000000" />
<rect x="8" y="6" width="1" height="1" fill="#000000" />
<rect x="9" y="6" width="1" height="1" fill="#000000" />
<rect x="10" y="6" width="1" height="1" fill="#000000" />
<rect x="11" y="6" width="1" height="1" fill="#000000" />
<rect x="12" y="6" width="1" height="1" fill="#000000" />
<rect x="3" y="7" width="1" height="1" fill="#000000" />
<rect x="4" y="7" width="1" height="1" fill="#000000" />
<rect x="5" y="7" width="1" height="1" fill="#000000" />
<rect x="6" y="7" width="1" height="1" fill="#E19473" />
<rect x="7" y="7" width="1" height="1" fill="#000000" />
<rect x="8" y="7" width="1" height="1" fill="#000000" />
<rect x="9" y="7" width="1" height="1" fill="#000000" />
<rect x="10" y="7" width="1" height="1" fill="#000000" />
<rect x="11" y="7" width="1" height="1" fill="#000000" />
<rect x="12" y="7" width="1" height="1" fill="#000000" />
<rect x="3" y="8" width="1" height="1" fill="#000000" />
<rect x="4" y="8" width="1" height="1" fill="#000000" />
<rect x="5" y="8" width="1" height="1" fill="#000000" />
<rect x="6" y="8" width="1" height="1" fill="#E19473" />
<rect x="7" y="8" width="1" height="1" fill="#E19473" />
<rect x="8" y="8" width="1" height="1" fill="#000000" />
<rect x="9" y="8" width="1" height="1" fill="#000000" />
<rect x="10" y="8" width="1" height="1" fill="#000000" />
<rect x="11" y="8" width="1" height="1" fill="#000000" />
<rect x="12" y="8" width="1" height="1" fill="#000000" />
<rect x="3" y="9" width="1" height="1" fill="#000000" />
<rect x="4" y="9" width="1" height="1" fill="#000000" />
<rect x="5" y="9" width="1" height="1" fill="#FBCCAC" />
<rect x="6" y="9" width="1" height="1" fill="#FBCCAC" />
<rect x="7" y="9" width="1" height="1" fill="#FBCCAC" />
<rect x="8" y="9" width="1" height="1" fill="#FBCCAC" />
<rect x="9" y="9" width="1" height="1" fill="#000000" />
<rect x="10" y="9" width="1" height="1" fill="#000000" />
<rect x="11" y="9" width="1" height="1" fill="#000000" />
<rect x="12" y="9" width="1" height="1" fill="#000000" />
<rect x="3" y="10" width="1" height="1" fill="#000000" />
<rect x="4" y="10" width="1" height="1" fill="#000000" />
<rect x="5" y="10" width="1" height="1" fill="#FBCCAC" />
<rect x="6" y="10" width="1" height="1" fill="#FBCCAC" />
<rect x="7" y="10" width="1" height="1" fill="#FBCCAC" />
<rect x="8" y="10" width="1" height="1" fill="#FBCCAC" />
<rect x="9" y="10" width="1" height="1" fill="#000000" />
<rect x="10" y="10" width="1" height="1" fill="#000000" />
<rect x="11" y="10" width="1" height="1" fill="#000000" />
<rect x="3" y="11" width="1" height="1" fill="#7E4848" />
<rect x="4" y="11" width="1" height="1" fill="#000000" />
<rect x="5" y="11" width="1" height="1" fill="#35191F" />
<rect x="6" y="11" width="1" height="1" fill="#35191F" />
<rect x="7" y="11" width="1" height="1" fill="#35191F" />
<rect x="8" y="11" width="1" height="1" fill="#35191F" />
<rect x="9" y="11" width="1" height="1" fill="#000000" />
<rect x="10" y="11" width="1" height="1" fill="#000000" />
<rect x="11" y="11" width="1" height="1" fill="#7E4848" />
<rect x="2" y="12" width="1" height="1" fill="#7E4848" />
<rect x="3" y="12" width="1" height="1" fill="#7E4848" />
<rect x="4" y="12" width="1" height="1" fill="#7E4848" />
<rect x="5" y="12" width="1" height="1" fill="#7E4848" />
<rect x="6" y="12" width="1" height="1" fill="#5E3D3D" />
<rect x="7" y="12" width="1" height="1" fill="#270731" />
<rect x="8" y="12" width="1" height="1" fill="#5E3D3D" />
<rect x="9" y="12" width="1" height="1" fill="#000000" />
<rect x="10" y="12" width="1" height="1" fill="#7E4848" />
<rect x="11" y="12" width="1" height="1" fill="#7E4848" />
<rect x="12" y="12" width="1" height="1" fill="#7E4848" />
<rect x="2" y="13" width="1" height="1" fill="#5E3D3D" />
<rect x="3" y="13" width="1" height="1" fill="#7E4848" />
<rect x="4" y="13" width="1" height="1" fill="#7E4848" />
<rect x="5" y="13" width="1" height="1" fill="#7E4848" />
<rect x="6" y="13" width="1" height="1" fill="#270731" />
<rect x="7" y="13" width="1" height="1" fill="#270731" />
<rect x="8" y="13" width="1" height="1" fill="#270731" />
<rect x="9" y="13" width="1" height="1" fill="#7E4848" />
<rect x="10" y="13" width="1" height="1" fill="#7E4848" />
<rect x="11" y="13" width="1" height="1" fill="#7E4848" />
<rect x="12" y="13" width="1" height="1" fill="#5E3D3D" />
<rect x="1" y="14" width="1" height="1" fill="#5E3D3D" />
<rect x="2" y="14" width="1" height="1" fill="#5E3D3D" />
<rect x="3" y="14" width="1" height="1" fill="#5E3D3D" />
<rect x="4" y="14" width="1" height="1" fill="#7E4848" />
<rect x="5" y="14" width="1" height="1" fill="#7E4848" />
<rect x="6" y="14" width="1" height="1" fill="#4B185B" />
<rect x="7" y="14" width="1" height="1" fill="#4B185B" />
<rect x="8" y="14" width="1" height="1" fill="#4B185B" />
<rect x="9" y="14" width="1" height="1" fill="#7E4848" />
<rect x="10" y="14" width="1" height="1" fill="#7E4848" />
<rect x="11" y="14" width="1" height="1" fill="#5E3D3D" />
<rect x="12" y="14" width="1" height="1" fill="#5E3D3D" />
<rect x="13" y="14" width="1" height="1" fill="#5E3D3D" />
<rect x="1" y="15" width="1" height="1" fill="#5E3D3D" />
<rect x="2" y="15" width="1" height="1" fill="#5E3D3D" />
<rect x="3" y="15" width="1" height="1" fill="#5E3D3D" />
<rect x="4" y="15" width="1" height="1" fill="#5E3D3D" />
<rect x="5" y="15" width="1" height="1" fill="#4B185B" />
<rect x="6" y="15" width="1" height="1" fill="#4B185B" />
<rect x="7" y="15" width="1" height="1" fill="#4B185B" />
<rect x="8" y="15" width="1" height="1" fill="#4B185B" />
<rect x="9" y="15" width="1" height="1" fill="#4B185B" />
<rect x="10" y="15" width="1" height="1" fill="#5E3D3D" />
<rect x="11" y="15" width="1" height="1" fill="#5E3D3D" />
<rect x="12" y="15" width="1" height="1" fill="#5E3D3D" />
<rect x="13" y="15" width="1" height="1" fill="#5E3D3D" />
<rect x="1" y="16" width="1" height="1" fill="#35191F" />
<rect x="2" y="16" width="1" height="1" fill="#5E3D3D" />
<rect x="3" y="16" width="1" height="1" fill="#5E3D3D" />
<rect x="4" y="16" width="1" height="1" fill="#5E3D3D" />
<rect x="5" y="16" width="1" height="1" fill="#4B185B" />
<rect x="6" y="16" width="1" height="1" fill="#4B185B" />
<rect x="7" y="16" width="1" height="1" fill="#4B185B" />
<rect x="8" y="16" width="1" height="1" fill="#4B185B" />
<rect x="9" y="16" width="1" height="1" fill="#4B185B" />
<rect x="10" y="16" width="1" height="1" fill="#5E3D3D" />
<rect x="11" y="16" width="1" height="1" fill="#5E3D3D" />
<rect x="12" y="16" width="1" height="1" fill="#5E3D3D" />
<rect x="13" y="16" width="1" height="1" fill="#35191F" />
<rect x="0" y="17" width="1" height="1" fill="#E19473" />
<rect x="1" y="17" width="1" height="1" fill="#E19473" />
<rect x="2" y="17" width="1" height="1" fill="#35191F" />
<rect x="3" y="17" width="1" height="1" fill="#5E3D3D" />
<rect x="4" y="17" width="1" height="1" fill="#5E3D3D" />
<rect x="5" y="17" width="1" height="1" fill="#4B185B" />
<rect x="6" y="17" width="1" height="1" fill="#4B185B" />
<rect x="7" y="17" width="1" height="1" fill="#4B185B" />
<rect x="8" y="17" width="1" height="1" fill="#4B185B" />
<rect x="9" y="17" width="1" height="1" fill="#4B185B" />
<rect x="10" y="17" width="1" height="1" fill="#5E3D3D" />
<rect x="11" y="17" width="1" height="1" fill="#5E3D3D" />
<rect x="12" y="17" width="1" height="1" fill="#35191F" />
<rect x="13" y="17" width="1" height="1" fill="#E19473" />
<rect x="14" y="17" width="1" height="1" fill="#E19473" />
<rect x="0" y="18" width="1" height="1" fill="#FBCCAC" />
<rect x="1" y="18" width="1" height="1" fill="#FBCCAC" />
<rect x="2" y="18" width="1" height="1" fill="#35191F" />
<rect x="3" y="18" width="1" height="1" fill="#35191F" />
<rect x="4" y="18" width="1" height="1" fill="#5E3D3D" />
<rect x="5" y="18" width="1" height="1" fill="#000000" />
<rect x="6" y="18" width="1" height="1" fill="#4B185B" />
<rect x="7" y="18" width="1" height="1" fill="#4B185B" />
<rect x="8" y="18" width="1" height="1" fill="#4B185B" />
<rect x="9" y="18" width="1" height="1" fill="#000000" />
<rect x="10" y="18" width="1" height="1" fill="#5E3D3D" />
<rect x="11" y="18" width="1" height="1" fill="#35191F" />
<rect x="12" y="18" width="1" height="1" fill="#35191F" />
<rect x="13" y="18" width="1" height="1" fill="#FBCCAC" />
<rect x="14" y="18" width="1" height="1" fill="#FBCCAC" />
<rect x="3" y="19" width="1" height="1" fill="#35191F" />
<rect x="4" y="19" width="1" height="1" fill="#000000" />
<rect x="5" y="19" width="1" height="1" fill="#000000" />
<rect x="6" y="19" width="1" height="1" fill="#000000" />
<rect x="7" y="19" width="1" height="1" fill="#000000" />
<rect x="8" y="19" width="1" height="1" fill="#000000" />
<rect x="9" y="19" width="1" height="1" fill="#000000" />
<rect x="10" y="19" width="1" height="1" fill="#000000" />
<rect x="11" y="19" width="1" height="1" fill="#35191F" />
<rect x="1" y="20" width="1" height="1" fill="#181425" opacity="0.529412" />
<rect x="2" y="20" width="1" height="1" fill="#181425" opacity="0.529412" />
<rect x="3" y="20" width="1" height="1" fill="#181425" opacity="0.529412" />
<rect x="4" y="20" width="1" height="1" fill="#000000" />
<rect x="5" y="20" width="1" height="1" fill="#000000" />
<rect x="6" y="20" width="1" height="1" fill="#000000" />
<rect x="7" y="20" width="1" height="1" fill="#181425" opacity="0.529412" />
<rect x="8" y="20" width="1" height="1" fill="#000000" />
<rect x="9" y="20" width="1" height="1" fill="#000000" />
<rect x="10" y="20" width="1" height="1" fill="#000000" />
<rect x="11" y="20" width="1" height="1" fill="#181425" opacity="0.529412" />
<rect x="12" y="20" width="1" height="1" fill="#181425" opacity="0.529412" />
<rect x="13" y="20" width="1" height="1" fill="#181425" opacity="0.529412" />
<rect x="0" y="21" width="1" height="1" fill="#181425" opacity="0.529412" />
<rect x="1" y="21" width="1" height="1" fill="#181425" opacity="0.529412" />
<rect x="2" y="21" width="1" height="1" fill="#181425" opacity="0.529412" />
<rect x="3" y="21" width="1" height="1" fill="#181425" opacity="0.529412" />
<rect x="4" y="21" width="1" height="1" fill="#181425" opacity="0.529412" />
<rect x="5" y="21" width="1" height="1" fill="#000000" />
<rect x="6" y="21" width="1" height="1" fill="#000000" />
<rect x="7" y="21" width="1" height="1" fill="#181425" opacity="0.529412" />
<rect x="8" y="21" width="1" height="1" fill="#000000" />
<rect x="9" y="21" width="1" height="1" fill="#000000" />
<rect x="10" y="21" width="1" height="1" fill="#181425" opacity="0.529412" />
<rect x="11" y="21" width="1" height="1" fill="#181425" opacity="0.529412" />
<rect x="12" y="21" width="1" height="1" fill="#181425" opacity="0.529412" />
<rect x="13" y="21" width="1" height="1" fill="#181425" opacity="0.529412" />
<rect x="14" y="21" width="1" height="1" fill="#181425" opacity="0.529412" />
<rect x="0" y="22" width="1" height="1" fill="#181425" opacity="0.529412" />
<rect x="1" y="22" width="1" height="1" fill="#181425" opacity="0.529412" />
<rect x="2" y="22" width="1" height="1" fill="#181425" opacity="0.529412" />
<rect x="3" y="22" width="1" height="1" fill="#181425" opacity="0.529412" />
<rect x="4" y="22" width="1" height="1" fill="#181425" opacity="0.529412" />
<rect x="5" y="22" width="1" height="1" fill="#181425" opacity="0.529412" />
<rect x="6" y="22" width="1" height="1" fill="#000000" />
<rect x="7" y="22" width="1" height="1" fill="#181425" opacity="0.529412" />
<rect x="8" y="22" width="1" height="1" fill="#000000" />
<rect x="9" y="22" width="1" height="1" fill="#181425" opacity="0.529412" />
<rect x="10" y="22" width="1" height="1" fill="#181425" opacity="0.529412" />
<rect x="11" y="22" width="1" height="1" fill="#181425" opacity="0.529412" />
<rect x="12" y="22" width="1" height="1" fill="#181425" opacity="0.529412" />
<rect x="13" y="22" width="1" height="1" fill="#181425" opacity="0.529412" />
<rect x="14" y="22" width="1" height="1" fill="#181425" opacity="0.529412" />
<rect x="1" y="23" width="1" height="1" fill="#181425" opacity="0.529412" />
<rect x="2" y="23" width="1" height="1" fill="#181425" opacity="0.529412" />
<rect x="3" y="23" width="1" height="1" fill="#181425" opacity="0.529412" />
<rect x="4" y="23" width="1" height="1" fill="#181425" opacity="0.529412" />
<rect x="5" y="23" width="1" height="1" fill="#181425" opacity="0.529412" />
<rect x="6" y="23" width="1" height="1" fill="#181425" opacity="0.529412" />
<rect x="7" y="23" width="1" height="1" fill="#181425" opacity="0.529412" />
<rect x="8" y="23" width="1" height="1" fill="#181425" opacity="0.529412" />
<rect x="9" y="23" width="1" height="1" fill="#181425" opacity="0.529412" />
<rect x="10" y="23" width="1" height="1" fill="#181425" opacity="0.529412" />
<rect x="11" y="23" width="1" height="1" fill="#181425" opacity="0.529412" />
<rect x="12" y="23" width="1" height="1" fill="#181425" opacity="0.529412" />
<rect x="13" y="23" width="1" height="1" fill="#181425" opacity="0.529412" />
<rect x="3" y="24" width="1" height="1" fill="#181425" opacity="0.529412" />
<rect x="4" y="24" width="1" height="1" fill="#181425" opacity="0.529412" />
<rect x="5" y="24" width="1" height="1" fill="#181425" opacity="0.529412" />
<rect x="6" y="24" width="1" height="1" fill="#181425" opacity="0.529412" />
<rect x="7" y="24" width="1" height="1" fill="#181425" opacity="0.529412" />
<rect x="8" y="24" width="1" height="1" fill="#181425" opacity="0.529412" />
<rect x="9" y="24" width="1" height="1" fill="#181425" opacity="0.529412" />
<rect x="10" y="24" width="1" height="1" fill="#181425" opacity="0.529412" />
<rect x="11" y="24" width="1" height="1" fill="#181425" opacity="0.529412" />
</svg>