<svg width="104" height="54" viewBox="0 0 104 54" fill="none" xmlns="http://www.w3.org/2000/svg">
<g opacity="0.6" clip-path="url(#clip0_7_2)" filter="url(#filter0_f_7_2)">
<path d="M93.1885 36.6331C98.6761 34.7691 102.051 31.4189 101.999 27.8733C101.933 24.0121 98.1376 20.5318 92.3782 18.9557C93.1782 17.4726 93.4141 15.8965 93.0603 14.3267C92.0499 9.871 86.193 6.29771 78.8124 5.63821C75.4634 5.33786 72.1452 5.62892 69.1347 6.47733C65.996 3.6937 60.7443 2 55.1231 2C50.9484 2 47.0096 2.90412 43.9119 4.56691C40.9578 3.07756 37.2806 2.26008 33.3829 2.26008C26.2797 2.26008 20.0436 5.0097 17.8221 9.02879C9.05212 9.21766 2 13.5867 2 18.9277C2 21.9405 4.27202 24.7767 8.1441 26.6562C7.20044 27.9629 6.72864 29.3903 6.77984 30.827C6.96448 36.1219 14.2522 40.4755 23.0221 40.5278C24.9761 40.5371 26.9762 40.3389 28.8277 39.924C29.079 45.2591 36.3361 49.5534 45.2393 49.5534C49.9524 49.5534 54.4451 48.3086 57.5428 46.1938C60.7996 47.8597 64.9896 48.6894 69.2925 48.5161C76.6726 48.2064 82.9758 44.8066 84.273 40.4221C84.5345 39.5675 84.6012 38.7005 84.4833 37.8552C87.5296 37.9821 90.3761 37.5765 93.1609 36.6352L93.1885 36.6331ZM83.08 35.9674C82.6082 35.9117 82.1107 36.0077 81.7671 36.212C81.4235 36.4195 81.2799 36.7198 81.3722 37.0047C81.7158 38.0265 81.7261 39.0669 81.4235 40.1135C80.3465 43.7115 75.1717 46.5106 69.1097 46.7645C65.1195 46.9379 61.2321 46.0337 58.4473 44.2905C58.1447 44.1016 57.7139 44.0056 57.2933 44.0211C56.8625 44.0366 56.4676 44.1728 56.2163 44.3865C53.6828 46.5199 49.585 47.7956 45.2513 47.7956C37.8045 47.7956 31.7531 44.1418 31.7531 39.6461C31.7531 39.3458 31.7941 39.0207 31.871 38.6306C31.9377 38.3054 31.7018 37.9803 31.2402 37.7914C30.9889 37.6892 30.7171 37.6397 30.4248 37.6397C30.1888 37.6397 29.9375 37.68 29.717 37.7512C27.6963 38.4262 25.409 38.7977 23.0601 38.7575C15.8543 38.711 9.85335 35.1347 9.70499 30.784C9.6537 29.3968 10.2025 28.0189 11.2795 26.7959C11.6333 26.3995 11.4231 25.9072 10.8179 25.6533C7.13039 24.1299 4.93531 21.6188 4.93531 18.9249C4.93531 14.4289 10.9871 10.7754 18.4335 10.7754L18.8797 10.7909C19.5874 10.8218 20.167 10.5308 20.3363 10.1345C21.8749 6.52717 27.2445 4.01598 33.3886 4.01598C36.9838 4.01598 40.3584 4.8551 42.9073 6.394C43.1843 6.56121 43.5638 6.6479 43.9587 6.6479C44.3536 6.6479 44.7177 6.54572 44.9946 6.37852C47.6718 4.691 51.272 3.75588 55.1289 3.75588C60.1702 3.75588 64.8424 5.40314 67.3401 8.06913C67.535 8.27659 67.853 8.42522 68.2223 8.48095C68.6018 8.54288 68.9967 8.51191 69.3403 8.39425C72.0995 7.44367 75.2331 7.09379 78.3974 7.37241C84.4902 7.92047 89.3316 10.8683 90.1728 14.5529C90.5266 16.1073 90.1728 17.6772 89.1727 19.0861C89.0137 19.309 89.0137 19.5629 89.1727 19.792C89.3317 20.015 89.6445 20.1884 90.024 20.2689C95.3783 21.4021 99.0197 24.4614 99.0709 27.8798C99.1119 30.7811 96.3116 33.5399 91.7473 35.085C88.988 36.0201 86.152 36.305 83.0696 35.9582L83.08 35.9674Z" fill="#7FFF00"/>
<path d="M23.3685 42.2675C21.1119 41.933 18.8246 41.9578 16.9475 42.3294C14.8191 42.7505 13.4139 43.5587 12.9934 44.6114C12.1779 46.655 15.45 48.8287 20.4402 49.5563C21.5018 49.7143 22.5686 49.7855 23.6046 49.7855C24.7585 49.7855 25.8612 49.6895 26.8613 49.4913C28.9897 49.0702 30.3949 48.262 30.8154 47.2093C31.6309 45.1657 28.3588 42.992 23.3687 42.2644L23.3685 42.2675ZM27.974 46.7943C27.8048 47.2216 27.0662 47.5963 25.9533 47.8162C24.5994 48.0763 22.8402 48.0948 21.1221 47.8409C17.5372 47.3176 15.4652 45.9398 15.8294 45.0263C15.9987 44.599 16.7372 44.2244 17.8502 44.0045C18.5477 43.8682 19.3477 43.797 20.1991 43.797C20.9992 43.797 21.8403 43.859 22.666 43.9797C26.2509 44.503 28.3229 45.8809 27.9586 46.7943H27.974Z" fill="#7FFF00"/>
<path d="M6.89763 51.873C7.48742 51.9598 8.06695 52 8.61572 52C10.9543 52 12.8981 51.2785 13.3546 50.1298C13.9188 48.7023 11.975 47.2378 8.9286 46.7919C5.88221 46.3491 3.03579 47.117 2.45626 48.5351C1.87672 49.9626 3.83588 51.4271 6.88227 51.873H6.89763ZM5.30781 48.947C5.41038 48.6869 6.15916 48.4237 7.22586 48.4237C7.53871 48.4237 7.88232 48.4485 8.25159 48.5042C9.84141 48.7333 10.6671 49.3774 10.5236 49.7179C10.3903 50.0585 9.16971 50.3991 7.58488 50.17C5.99506 49.9409 5.16936 49.2968 5.31286 48.9563L5.30781 48.947Z" fill="#7FFF00"/>
</g>
<defs>
<filter id="filter0_f_7_2" x="0" y="0" width="104" height="54" filterUnits="userSpaceOnUse" color-interpolation-filters="sRGB">
<feFlood flood-opacity="0" result="BackgroundImageFix"/>
<feBlend mode="normal" in="SourceGraphic" in2="BackgroundImageFix" result="shape"/>
<feGaussianBlur stdDeviation="1" result="effect1_foregroundBlur_7_2"/>
</filter>
<clipPath id="clip0_7_2">
<rect width="100" height="50" fill="white" transform="translate(2 2)"/>
</clipPath>
</defs>
</svg>
