<svg width="101" height="50" viewBox="0 0 101 50" fill="none" xmlns="http://www.w3.org/2000/svg">
<path d="M92.1885 36.415C97.6761 34.4551 101.051 30.9325 100.999 27.2045C100.933 23.1447 97.1376 19.4853 91.3782 17.8281C92.1782 16.2686 92.4141 14.6115 92.0603 12.9609C91.0499 8.27597 85.193 4.51883 77.8124 3.8254C74.4634 3.50959 71.1452 3.81563 68.1347 4.70769C64.996 1.78085 59.7443 0 54.1231 0C49.9484 0 46.0096 0.950639 42.9119 2.69898C39.9578 1.133 36.2806 0.273456 32.3829 0.273456C25.2797 0.273456 19.0436 3.16455 16.8221 7.39042C8.05212 7.58902 1 12.1828 1 17.7986C1 20.9664 3.27202 23.9486 7.1441 25.9248C6.20044 27.2987 5.72864 28.7996 5.77984 30.3102C5.96448 35.8774 13.2522 40.455 22.0221 40.51C23.9761 40.5198 25.9762 40.3114 27.8277 39.8752C28.079 45.4848 35.3361 50 44.2393 50C48.9524 50 53.4451 48.6912 56.5428 46.4676C59.7996 48.2192 63.9896 49.0916 68.2925 48.9093C75.6726 48.5838 81.9758 45.009 83.273 40.3989C83.5345 39.5004 83.6012 38.5887 83.4833 37.6999C86.5296 37.8334 89.3761 37.4069 92.1609 36.4172L92.1885 36.415ZM82.08 35.7151C81.6082 35.6564 81.1107 35.7574 80.7671 35.9722C80.4235 36.1904 80.2799 36.5062 80.3722 36.8057C80.7158 37.8801 80.7261 38.974 80.4235 40.0744C79.3465 43.8576 74.1717 46.8007 68.1097 47.0676C64.1195 47.25 60.2321 46.2993 57.4473 44.4663C57.1447 44.2677 56.7139 44.1668 56.2933 44.1831C55.8625 44.1994 55.4676 44.3426 55.2163 44.5673C52.6828 46.8104 48.585 48.1518 44.2513 48.1518C36.8045 48.1518 30.7531 44.3101 30.7531 39.583C30.7531 39.2672 30.7941 38.9254 30.871 38.5152C30.9377 38.1734 30.7018 37.8315 30.2402 37.6329C29.9889 37.5255 29.7171 37.4734 29.4248 37.4734C29.1888 37.4734 28.9375 37.5157 28.717 37.5906C26.6963 38.3003 24.409 38.691 22.0601 38.6486C14.8543 38.5998 8.85335 34.8395 8.70499 30.2649C8.6537 28.8064 9.20247 27.3576 10.2794 26.0716C10.6333 25.6549 10.4231 25.1372 9.81787 24.8703C6.13039 23.2685 3.93531 20.6282 3.93531 17.7957C3.93531 13.0684 9.98711 9.22691 17.4335 9.22691L17.8797 9.24319C18.5874 9.27574 19.167 8.96971 19.3363 8.55298C20.8749 4.76009 26.2445 2.1197 32.3886 2.1197C35.9838 2.1197 39.3584 3.002 41.9073 4.62007C42.1843 4.79588 42.5638 4.88704 42.9587 4.88704C43.3536 4.88704 43.7177 4.7796 43.9946 4.60379C46.6718 2.82945 50.272 1.84622 54.1289 1.84622C59.1702 1.84622 63.8424 3.57823 66.3401 6.38139C66.535 6.59952 66.853 6.75579 67.2223 6.8144C67.6018 6.87951 67.9967 6.84695 68.3403 6.72323C71.0995 5.72375 74.2331 5.35586 77.3974 5.64882C83.4902 6.22508 88.3316 9.32453 89.1728 13.1988C89.5266 14.8331 89.1728 16.4838 88.1727 17.9651C88.0137 18.1995 88.0137 18.4665 88.1727 18.7074C88.3317 18.9418 88.6445 19.1242 89.024 19.2088C94.3783 20.4004 98.0197 23.617 98.0709 27.2113C98.1119 30.2619 95.3116 33.1627 90.7473 34.7873C87.988 35.7705 85.152 36.07 82.0696 35.7054L82.08 35.7151Z" fill="black"/>
<path d="M22.3685 41.2878C20.1119 40.9362 17.8246 40.9622 15.9475 41.3529C13.8191 41.7957 12.4139 42.6454 11.9934 43.7523C11.1779 45.9011 14.45 48.1866 19.4402 48.9517C20.5018 49.1177 21.5686 49.1926 22.6046 49.1926C23.7585 49.1926 24.8612 49.0917 25.8613 48.8833C27.9897 48.4405 29.3949 47.5908 29.8154 46.4839C30.6309 44.3351 27.3588 42.0496 22.3687 41.2845L22.3685 41.2878ZM26.974 46.0476C26.8048 46.4968 26.0662 46.8908 24.9533 47.122C23.5994 47.3954 21.8402 47.415 20.1221 47.148C16.5372 46.5978 14.4652 45.1491 14.8294 44.1886C14.9987 43.7393 15.7372 43.3454 16.8502 43.1142C17.5477 42.9709 18.3477 42.896 19.1991 42.896C19.9992 42.896 20.8403 42.9612 21.666 43.0881C25.2509 43.6383 27.3229 45.0871 26.9586 46.0476H26.974Z" fill="black"/>
<path d="M4.89763 48.2332C5.48742 48.3244 6.06695 48.3667 6.61572 48.3667C8.95431 48.3667 10.8981 47.6081 11.3546 46.4002C11.9188 44.8994 9.97498 43.3595 6.9286 42.8906C3.88221 42.4251 1.03579 43.2325 0.456261 44.7236C-0.123278 46.2245 1.83588 47.7644 4.88227 48.2332L4.89763 48.2332ZM3.30781 45.1566C3.41038 44.8831 4.15916 44.6064 5.22586 44.6064C5.53871 44.6064 5.88232 44.6324 6.25159 44.691C7.84141 44.932 8.66711 45.6092 8.5236 45.9672C8.39026 46.3253 7.16971 46.6835 5.58488 46.4425C3.99506 46.2016 3.16936 45.5244 3.31286 45.1664L3.30781 45.1566Z" fill="black"/>
</svg>
