<svg width="100" height="50" viewBox="0 0 100 50" fill="none" xmlns="http://www.w3.org/2000/svg">
<path d="M91.1885 34.6331C96.6761 32.7691 100.051 29.4189 99.9994 25.8733C99.9327 22.0121 96.1376 18.5318 90.3782 16.9557C91.1782 15.4726 91.4141 13.8965 91.0603 12.3267C90.0499 7.871 84.193 4.29771 76.8124 3.63821C73.4634 3.33786 70.1452 3.62892 67.1347 4.47733C63.996 1.6937 58.7443 0 53.1231 0C48.9484 0 45.0096 0.904122 41.9119 2.56691C38.9578 1.07756 35.2806 0.260075 31.3829 0.260075C24.2797 0.260075 18.0436 3.0097 15.8221 7.02879C7.05212 7.21766 0 11.5867 0 16.9277C0 19.9405 2.27202 22.7767 6.1441 24.6562C5.20044 25.9629 4.72864 27.3903 4.77984 28.827C4.96448 34.1219 12.2522 38.4755 21.0221 38.5278C22.9761 38.5371 24.9762 38.3389 26.8277 37.924C27.079 43.2591 34.3361 47.5534 43.2393 47.5534C47.9524 47.5534 52.4451 46.3086 55.5428 44.1938C58.7996 45.8597 62.9896 46.6894 67.2925 46.5161C74.6726 46.2064 80.9758 42.8066 82.273 38.4221C82.5345 37.5675 82.6012 36.7005 82.4833 35.8552C85.5296 35.9821 88.3761 35.5765 91.1609 34.6352L91.1885 34.6331ZM81.08 33.9674C80.6082 33.9117 80.1107 34.0077 79.7671 34.212C79.4235 34.4195 79.2799 34.7198 79.3722 35.0047C79.7158 36.0265 79.7261 37.0669 79.4235 38.1135C78.3465 41.7115 73.1717 44.5106 67.1097 44.7645C63.1195 44.9379 59.2321 44.0337 56.4473 42.2905C56.1447 42.1016 55.7139 42.0056 55.2933 42.0211C54.8625 42.0366 54.4676 42.1728 54.2163 42.3865C51.6828 44.5199 47.585 45.7956 43.2513 45.7956C35.8045 45.7956 29.7531 42.1418 29.7531 37.6461C29.7531 37.3458 29.7941 37.0207 29.871 36.6306C29.9377 36.3054 29.7018 35.9803 29.2402 35.7914C28.9889 35.6892 28.7171 35.6397 28.4248 35.6397C28.1888 35.6397 27.9375 35.68 27.717 35.7512C25.6963 36.4262 23.409 36.7977 21.0601 36.7575C13.8543 36.711 7.85335 33.1347 7.70499 28.784C7.6537 27.3968 8.20247 26.0189 9.27945 24.7959C9.63332 24.3995 9.42306 23.9072 8.81787 23.6533C5.13039 22.1299 2.93531 19.6188 2.93531 16.9249C2.93531 12.4289 8.98711 8.77541 16.4335 8.77541L16.8797 8.79089C17.5874 8.82185 18.167 8.5308 18.3363 8.13446C19.8749 4.52717 25.2445 2.01598 31.3886 2.01598C34.9838 2.01598 38.3584 2.8551 40.9073 4.394C41.1843 4.56121 41.5638 4.6479 41.9587 4.6479C42.3536 4.6479 42.7177 4.54572 42.9946 4.37852C45.6718 2.691 49.272 1.75588 53.1289 1.75588C58.1702 1.75588 62.8424 3.40314 65.3401 6.06913C65.535 6.27659 65.853 6.42522 66.2223 6.48095C66.6018 6.54288 66.9967 6.51191 67.3403 6.39425C70.0995 5.44367 73.2331 5.09379 76.3974 5.37241C82.4902 5.92047 87.3316 8.86826 88.1728 12.5529C88.5266 14.1073 88.1728 15.6772 87.1727 17.0861C87.0137 17.309 87.0137 17.5629 87.1727 17.792C87.3317 18.015 87.6445 18.1884 88.024 18.2689C93.3783 19.4021 97.0197 22.4614 97.0709 25.8798C97.1119 28.7811 94.3116 31.5399 89.7473 33.085C86.988 34.0201 84.152 34.305 81.0696 33.9582L81.08 33.9674Z" fill="black"/>
<path d="M21.3685 40.2675C19.1119 39.933 16.8246 39.9578 14.9475 40.3294C12.8191 40.7505 11.4139 41.5587 10.9934 42.6114C10.1779 44.655 13.45 46.8287 18.4402 47.5563C19.5018 47.7143 20.5686 47.7855 21.6046 47.7855C22.7585 47.7855 23.8612 47.6895 24.8613 47.4913C26.9897 47.0702 28.3949 46.262 28.8154 45.2093C29.6309 43.1657 26.3588 40.992 21.3687 40.2644L21.3685 40.2675ZM25.974 44.7943C25.8048 45.2216 25.0662 45.5963 23.9533 45.8162C22.5994 46.0763 20.8402 46.0948 19.1221 45.8409C15.5372 45.3176 13.4652 43.9398 13.8294 43.0263C13.9987 42.599 14.7372 42.2244 15.8502 42.0045C16.5477 41.8682 17.3477 41.797 18.1991 41.797C18.9992 41.797 19.8403 41.859 20.666 41.9797C24.2509 42.503 26.3229 43.8809 25.9586 44.7943H25.974Z" fill="black"/>
<path d="M4.89763 49.873C5.48742 49.9598 6.06695 50 6.61572 50C8.95431 50 10.8981 49.2785 11.3546 48.1298C11.9188 46.7023 9.97498 45.2378 6.9286 44.7919C3.88221 44.3491 1.03579 45.117 0.456261 46.5351C-0.123278 47.9626 1.83588 49.4271 4.88227 49.873L4.89763 49.873ZM3.30781 46.947C3.41038 46.6869 4.15916 46.4237 5.22586 46.4237C5.53871 46.4237 5.88232 46.4485 6.25159 46.5042C7.84141 46.7333 8.66711 47.3774 8.5236 47.7179C8.39026 48.0585 7.16971 48.3991 5.58488 48.17C3.99506 47.9409 3.16936 47.2968 3.31286 46.9563L3.30781 46.947Z" fill="black"/>
</svg>
