<svg width="81" height="69" viewBox="0 0 81 69" fill="none" xmlns="http://www.w3.org/2000/svg">
<path d="M73.3001 43.6916C77.4798 41.34 80.0501 37.1135 80.011 32.6406C79.9602 27.7695 77.0696 23.3789 72.6829 21.3906C73.2923 19.5195 73.472 17.5312 73.2024 15.5508C72.4329 9.9297 67.9719 5.4218 62.3504 4.5898C59.7996 4.21089 57.2723 4.57808 54.9793 5.6484C52.5887 2.1367 48.5887 0 44.3073 0C41.1276 0 38.1276 1.1406 35.7682 3.2383C33.5182 1.3594 30.7174 0.328099 27.7487 0.328099C22.3385 0.328099 17.5887 3.7969 15.8967 8.8672C9.21703 9.10548 3.84573 14.6172 3.84573 21.3552C3.84573 25.156 5.57623 28.7341 8.52543 31.1052C7.80668 32.7536 7.44733 34.5544 7.48633 36.3669C7.62696 43.0466 13.1777 48.5389 19.8573 48.6049C21.3456 48.6166 22.869 48.3666 24.2792 47.8432C24.4706 54.5737 29.998 59.9912 36.7792 59.9912C40.369 59.9912 43.7909 58.4209 46.1503 55.7529C48.6308 57.8545 51.8222 58.9013 55.0995 58.6826C60.7206 58.292 65.5215 54.0029 66.5095 48.4716C66.7088 47.3935 66.7595 46.2997 66.6697 45.2333C68.99 45.3934 71.158 44.8817 73.2791 43.6942L73.3001 43.6916ZM65.6009 42.8518C65.2415 42.7814 64.8626 42.9025 64.6009 43.1604C64.3392 43.4221 64.2298 43.801 64.3001 44.1604C64.5618 45.4495 64.5697 46.762 64.3392 48.0823C63.5189 52.6214 59.5775 56.1526 54.9603 56.4729C51.9212 56.6916 48.9603 55.551 46.8392 53.3518C46.6087 53.1135 46.2806 52.9924 45.9603 53.0119C45.6322 53.0314 45.3314 53.2033 45.14 53.4729C43.2103 56.1643 40.0892 57.7737 36.7884 57.7737C31.1165 57.7737 26.5074 53.1642 26.5074 47.4926C26.5074 47.1137 26.5386 46.7036 26.5972 46.2115C26.648 45.8013 26.4683 45.3911 26.1167 45.1529C25.9253 45.0239 25.7183 44.9614 25.4957 44.9614C25.316 44.9614 25.1246 45.0122 24.9566 45.1021C23.4175 45.9536 21.6754 46.4224 19.8863 46.3716C14.398 46.313 9.82729 41.8013 9.71429 36.3126C9.67523 34.5626 10.0932 32.8243 10.9135 31.2814C11.183 30.7814 11.0229 30.1603 10.5619 29.84C7.75333 27.9181 6.08143 24.7502 6.08143 21.3517C6.08143 15.6798 10.6908 11.0707 16.3624 11.0707L16.7023 11.0902C17.2413 11.1293 17.6827 10.7621 17.8117 10.2621C18.9836 5.71127 23.0734 2.54327 27.7531 2.54327C30.4914 2.54327 33.0617 3.60187 35.0031 5.54327C35.214 5.75421 35.5031 5.86358 35.8039 5.86358C36.1046 5.86358 36.382 5.73467 36.5929 5.52374C38.632 3.39484 41.3741 2.21514 44.3117 2.21514C48.1515 2.21514 51.7101 4.29324 53.6125 7.65654C53.761 7.91826 54.0031 8.10576 54.2844 8.17607C54.5735 8.2542 54.8742 8.21513 55.136 8.06669C57.2376 6.86749 59.6243 6.42609 62.0344 6.77759C66.675 7.469 70.3625 11.1878 71.0032 15.8362C71.2727 17.7971 71.0031 19.7776 70.2414 21.555C70.1203 21.8362 70.1203 22.1566 70.2414 22.4456C70.3625 22.7269 70.6008 22.9456 70.8899 23.0472C74.968 24.4769 77.7415 28.3363 77.7805 32.6488C77.8117 36.309 75.6789 39.7894 72.2024 41.7386C70.1008 42.9183 67.9407 43.2777 65.593 42.8402L65.6009 42.8518Z" fill="black"/>
<path d="M16.6131 52.6606C14.8943 52.2387 13.1522 52.27 11.7225 52.7387C10.1014 53.27 9.0311 54.2895 8.7108 55.6176C8.08971 58.1957 10.5819 60.9379 14.3827 61.8559C15.1913 62.0551 16.0038 62.145 16.7929 62.145C17.6718 62.145 18.5117 62.0239 19.2734 61.7739C20.8945 61.2426 21.9648 60.2231 22.2851 58.895C22.9062 56.3169 20.414 53.5747 16.6132 52.6567L16.6131 52.6606ZM20.1209 58.3715C19.992 58.9106 19.4295 59.3832 18.5818 59.6606C17.5506 59.9887 16.2107 60.0122 14.9021 59.6918C12.1716 59.0317 10.5935 57.2935 10.8709 56.1411C10.9998 55.602 11.5623 55.1294 12.41 54.852C12.9413 54.6801 13.5506 54.5902 14.1991 54.5902C14.8085 54.5902 15.4491 54.6684 16.078 54.8207C18.8085 55.4809 20.3866 57.2191 20.1092 58.3715H20.1209Z" fill="black"/>
<path d="M3.4601 68.4026C3.90932 68.512 4.35072 68.5628 4.7687 68.5628C6.5499 68.5628 8.03041 67.6526 8.37811 66.2034C8.8078 64.4026 7.3273 62.555 5.007 61.9925C2.6867 61.4339 0.518704 62.4026 0.0773045 64.1917C-0.364106 65.9925 1.1281 67.8401 3.4484 68.4026L3.4601 68.4026ZM2.2492 64.7112C2.32733 64.3831 2.89764 64.051 3.7101 64.051C3.94838 64.051 4.2101 64.0823 4.49135 64.1526C5.70225 64.4417 6.33115 65.2542 6.22185 65.6838C6.12029 66.1135 5.19065 66.5432 3.98355 66.2541C2.77265 65.9651 2.14375 65.1525 2.25305 64.7229L2.2492 64.7112Z" fill="black"/>
</svg>
