<svg width="100" height="50" viewBox="0 0 100 50" fill="none" xmlns="http://www.w3.org/2000/svg">
<path d="M91.612 31.8625C96.8359 30.1476 100.048 27.0654 99.9994 23.8034C99.936 20.2512 96.3232 17.0493 90.8406 15.5993C91.6022 14.2348 91.8268 12.7848 91.4899 11.3406C90.5282 7.24132 84.9528 3.9539 77.9269 3.34715C74.7389 3.07083 71.5802 3.33861 68.7143 4.11915C65.7265 1.55821 60.7272 0 55.3762 0C51.4022 0 47.6527 0.831792 44.7039 2.36156C41.8918 0.991354 38.3913 0.239269 34.681 0.239269C27.9192 0.239269 21.9828 2.76892 19.8681 6.46648C11.5196 6.64025 4.80648 10.6597 4.80648 15.5735C4.80648 18.3452 6.9693 20.9546 10.6553 22.6837C9.75696 23.8859 9.30784 25.1991 9.35658 26.5209C9.53234 31.3921 16.4698 35.3974 24.8181 35.4456C26.6782 35.4541 28.5822 35.2718 30.3447 34.8901C30.5839 39.7983 37.4922 43.7491 45.9675 43.7491C50.4541 43.7491 54.7308 42.6039 57.6797 40.6583C60.7798 42.1909 64.7685 42.9543 68.8646 42.7948C75.8899 42.5099 81.8902 39.3821 83.125 35.3483C83.374 34.5621 83.4375 33.7645 83.3252 32.9868C86.2252 33.1036 88.9348 32.7304 91.5858 31.8644L91.612 31.8625ZM81.9894 31.25C81.5402 31.1988 81.0667 31.2871 80.7396 31.4751C80.4125 31.6659 80.2758 31.9422 80.3637 32.2043C80.6908 33.1444 80.7005 34.1016 80.4125 35.0644C79.3872 38.3746 74.4612 40.9497 68.6905 41.1833C64.8922 41.3429 61.1916 40.511 58.5406 38.9072C58.2526 38.7335 57.8425 38.6452 57.4421 38.6594C57.032 38.6736 56.6561 38.799 56.4169 38.9956C54.0051 40.9583 50.1043 42.1319 45.9789 42.1319C38.89 42.1319 33.1295 38.7705 33.1295 34.6344C33.1295 34.3581 33.1685 34.059 33.2418 33.7001C33.3052 33.401 33.0806 33.1019 32.6413 32.9281C32.402 32.8341 32.1433 32.7885 31.865 32.7885C31.6404 32.7885 31.4012 32.8256 31.1913 32.8911C29.2677 33.5121 27.0904 33.8539 24.8543 33.8169C17.9949 33.7741 12.2824 30.4839 12.1411 26.4813C12.0923 25.2051 12.6147 23.9374 13.6399 22.8122C13.9768 22.4476 13.7766 21.9946 13.2005 21.7611C9.69028 20.3595 7.6007 18.0493 7.6007 15.5709C7.6007 11.4346 13.3616 8.07338 20.4501 8.07338L20.8749 8.08762C21.5486 8.11611 22.1003 7.84834 22.2614 7.48371C23.7261 4.165 28.8376 1.8547 34.6864 1.8547C38.1088 1.8547 41.3212 2.6267 43.7476 4.04248C44.0112 4.19631 44.3725 4.27607 44.7484 4.27607C45.1243 4.27607 45.471 4.18206 45.7346 4.02824C48.2831 2.47572 51.7102 1.61541 55.3817 1.61541C60.1808 1.61541 64.6284 3.13089 67.0061 5.5836C67.1916 5.77446 67.4943 5.9112 67.8458 5.96247C68.2071 6.01945 68.583 5.99096 68.9101 5.88271C71.5367 5.00818 74.5197 4.68629 77.5318 4.94262C83.3318 5.44684 87.9405 8.1588 88.7412 11.5487C89.0781 12.9787 88.7412 14.423 87.7892 15.7192C87.6379 15.9243 87.6379 16.1579 87.7892 16.3687C87.9406 16.5738 88.2384 16.7333 88.5997 16.8074C93.6966 17.85 97.1629 20.6645 97.2117 23.8094C97.2507 26.4786 94.5851 29.0168 90.2401 30.4382C87.6134 31.2985 84.9137 31.5606 81.9795 31.2416L81.9894 31.25Z" fill="black"/>
<path d="M20.7634 38.4032C18.6152 38.0955 16.4379 38.1183 14.651 38.4602C12.6249 38.8476 11.2873 39.5911 10.8869 40.5596C10.1107 42.4397 13.2255 44.4395 17.9758 45.109C18.9864 45.2543 20.0019 45.3198 20.9881 45.3198C22.0866 45.3198 23.1363 45.2315 24.0883 45.0492C26.1144 44.6617 27.4521 43.9182 27.8524 42.9497C28.6286 41.0696 25.5139 39.0698 20.7635 38.4004L20.7634 38.4032ZM25.1475 42.5679C24.9864 42.961 24.2834 43.3057 23.2239 43.508C21.9351 43.7473 20.2605 43.7644 18.625 43.5308C15.2123 43.0494 13.24 41.7818 13.5867 40.9414C13.7478 40.5482 14.4508 40.2036 15.5103 40.0013C16.1743 39.8759 16.9358 39.8104 17.7463 39.8104C18.508 39.8104 19.3086 39.8674 20.0946 39.9785C23.5073 40.4599 25.4796 41.7275 25.1329 42.5679H25.1475Z" fill="black"/>
<path d="M4.32451 49.8832C4.88596 49.963 5.43763 50 5.96003 50C8.18621 50 10.0366 49.3363 10.4711 48.2794C11.0082 46.9661 9.15782 45.6188 6.25786 45.2086C3.3579 44.8012 0.648288 45.5077 0.0966168 46.8123C-0.455067 48.1256 1.40993 49.473 4.30989 49.8832L4.32451 49.8832ZM2.8111 47.1912C2.90875 46.9519 3.62154 46.7098 4.63697 46.7098C4.93477 46.7098 5.26188 46.7326 5.61339 46.7839C7.1268 46.9947 7.91281 47.5872 7.77621 47.9005C7.64927 48.2138 6.48739 48.5272 4.97873 48.3164C3.46532 48.1056 2.67931 47.513 2.81592 47.1998L2.8111 47.1912Z" fill="black"/>
</svg>
