<?xml version="1.0" encoding="UTF-8" ?>
<svg version="1.1" width="8" height="6" xmlns="http://www.w3.org/2000/svg" shape-rendering="crispEdges">
<rect x="1" y="0" width="1" height="1" fill="#852727" />
<rect x="2" y="0" width="1" height="1" fill="#852727" />
<rect x="5" y="0" width="1" height="1" fill="#852727" />
<rect x="6" y="0" width="1" height="1" fill="#852727" />
<rect x="0" y="1" width="1" height="1" fill="#852727" />
<rect x="3" y="1" width="1" height="1" fill="#852727" />
<rect x="4" y="1" width="1" height="1" fill="#852727" />
<rect x="7" y="1" width="1" height="1" fill="#852727" />
<rect x="0" y="2" width="1" height="1" fill="#852727" />
<rect x="7" y="2" width="1" height="1" fill="#852727" />
<rect x="1" y="3" width="1" height="1" fill="#852727" />
<rect x="6" y="3" width="1" height="1" fill="#852727" />
<rect x="2" y="4" width="1" height="1" fill="#852727" />
<rect x="5" y="4" width="1" height="1" fill="#852727" />
<rect x="3" y="5" width="1" height="1" fill="#852727" />
<rect x="4" y="5" width="1" height="1" fill="#852727" />
</svg>