<?xml version="1.0" encoding="UTF-8" ?>
<svg version="1.1" width="30" height="22" xmlns="http://www.w3.org/2000/svg" shape-rendering="crispEdges">
<rect x="0" y="0" width="1" height="1" fill="#FF0000" />
<rect x="1" y="0" width="1" height="1" fill="#FF0000" />
<rect x="2" y="0" width="1" height="1" fill="#FF0000" />
<rect x="3" y="0" width="1" height="1" fill="#FF0000" />
<rect x="4" y="0" width="1" height="1" fill="#FF0000" />
<rect x="5" y="0" width="1" height="1" fill="#FF0000" />
<rect x="6" y="0" width="1" height="1" fill="#FF0000" />
<rect x="7" y="0" width="1" height="1" fill="#FF0000" />
<rect x="8" y="0" width="1" height="1" fill="#FF0000" />
<rect x="9" y="0" width="1" height="1" fill="#FF0000" />
<rect x="10" y="0" width="1" height="1" fill="#FF0000" />
<rect x="11" y="0" width="1" height="1" fill="#FF0000" />
<rect x="12" y="0" width="1" height="1" fill="#FF0000" />
<rect x="13" y="0" width="1" height="1" fill="#FF0000" />
<rect x="14" y="0" width="1" height="1" fill="#FF0000" />
<rect x="15" y="0" width="1" height="1" fill="#FF0000" />
<rect x="16" y="0" width="1" height="1" fill="#FF0000" />
<rect x="17" y="0" width="1" height="1" fill="#FF0000" />
<rect x="18" y="0" width="1" height="1" fill="#FF0000" />
<rect x="19" y="0" width="1" height="1" fill="#FF0000" />
<rect x="20" y="0" width="1" height="1" fill="#FF0000" />
<rect x="21" y="0" width="1" height="1" fill="#FF0000" />
<rect x="22" y="0" width="1" height="1" fill="#FF0000" />
<rect x="23" y="0" width="1" height="1" fill="#FF0000" />
<rect x="0" y="1" width="1" height="1" fill="#FF0000" />
<rect x="1" y="1" width="1" height="1" fill="#FF0000" />
<rect x="2" y="1" width="1" height="1" fill="#FF0000" />
<rect x="3" y="1" width="1" height="1" fill="#FF0000" />
<rect x="4" y="1" width="1" height="1" fill="#FF0000" />
<rect x="5" y="1" width="1" height="1" fill="#FF0000" />
<rect x="6" y="1" width="1" height="1" fill="#FF0000" />
<rect x="7" y="1" width="1" height="1" fill="#FF0000" />
<rect x="8" y="1" width="1" height="1" fill="#FF0000" />
<rect x="9" y="1" width="1" height="1" fill="#FF0000" />
<rect x="10" y="1" width="1" height="1" fill="#FF0000" />
<rect x="11" y="1" width="1" height="1" fill="#FF0000" />
<rect x="12" y="1" width="1" height="1" fill="#FF0000" />
<rect x="13" y="1" width="1" height="1" fill="#FF0000" />
<rect x="14" y="1" width="1" height="1" fill="#FF0000" />
<rect x="15" y="1" width="1" height="1" fill="#FF0000" />
<rect x="16" y="1" width="1" height="1" fill="#FF0000" />
<rect x="17" y="1" width="1" height="1" fill="#FF0000" />
<rect x="18" y="1" width="1" height="1" fill="#FF0000" />
<rect x="19" y="1" width="1" height="1" fill="#FF0000" />
<rect x="20" y="1" width="1" height="1" fill="#FF0000" />
<rect x="21" y="1" width="1" height="1" fill="#FF0000" />
<rect x="22" y="1" width="1" height="1" fill="#FF0000" />
<rect x="23" y="1" width="1" height="1" fill="#FF0000" />
<rect x="0" y="2" width="1" height="1" fill="#FF0000" />
<rect x="8" y="2" width="1" height="1" fill="#FF0000" />
<rect x="16" y="2" width="1" height="1" fill="#FF0000" />
<rect x="23" y="2" width="1" height="1" fill="#FF0000" />
<rect x="0" y="3" width="1" height="1" fill="#FF0000" />
<rect x="8" y="3" width="1" height="1" fill="#FF0000" />
<rect x="16" y="3" width="1" height="1" fill="#FF0000" />
<rect x="23" y="3" width="1" height="1" fill="#FF0000" />
<rect x="0" y="4" width="1" height="1" fill="#FF0000" />
<rect x="16" y="4" width="1" height="1" fill="#FF0000" />
<rect x="23" y="4" width="1" height="1" fill="#FF0000" />
<rect x="0" y="5" width="1" height="1" fill="#FF0000" />
<rect x="8" y="5" width="1" height="1" fill="#FF0000" />
<rect x="23" y="5" width="1" height="1" fill="#FF0000" />
<rect x="0" y="6" width="1" height="1" fill="#FF0000" />
<rect x="1" y="6" width="1" height="1" fill="#FF0000" />
<rect x="2" y="6" width="1" height="1" fill="#FF0000" />
<rect x="3" y="6" width="1" height="1" fill="#FF0000" />
<rect x="4" y="6" width="1" height="1" fill="#FF0000" />
<rect x="5" y="6" width="1" height="1" fill="#FF0000" />
<rect x="6" y="6" width="1" height="1" fill="#FF0000" />
<rect x="7" y="6" width="1" height="1" fill="#FF0000" />
<rect x="8" y="6" width="1" height="1" fill="#FF0000" />
<rect x="23" y="6" width="1" height="1" fill="#FF0000" />
<rect x="8" y="7" width="1" height="1" fill="#FF0000" />
<rect x="23" y="7" width="1" height="1" fill="#FF0000" />
<rect x="8" y="8" width="1" height="1" fill="#FF0000" />
<rect x="16" y="8" width="1" height="1" fill="#FF0000" />
<rect x="23" y="8" width="1" height="1" fill="#FF0000" />
<rect x="8" y="9" width="1" height="1" fill="#FF0000" />
<rect x="16" y="9" width="1" height="1" fill="#FF0000" />
<rect x="23" y="9" width="1" height="1" fill="#FF0000" />
<rect x="4" y="10" width="1" height="1" fill="#FF0000" />
<rect x="5" y="10" width="1" height="1" fill="#FF0000" />
<rect x="6" y="10" width="1" height="1" fill="#FF0000" />
<rect x="7" y="10" width="1" height="1" fill="#FF0000" />
<rect x="8" y="10" width="1" height="1" fill="#FF0000" />
<rect x="9" y="10" width="1" height="1" fill="#FF0000" />
<rect x="10" y="10" width="1" height="1" fill="#FF0000" />
<rect x="11" y="10" width="1" height="1" fill="#FF0000" />
<rect x="12" y="10" width="1" height="1" fill="#FF0000" />
<rect x="13" y="10" width="1" height="1" fill="#FF0000" />
<rect x="14" y="10" width="1" height="1" fill="#FF0000" />
<rect x="15" y="10" width="1" height="1" fill="#FF0000" />
<rect x="16" y="10" width="1" height="1" fill="#FF0000" />
<rect x="19" y="10" width="1" height="1" fill="#FF0000" />
<rect x="20" y="10" width="1" height="1" fill="#FF0000" />
<rect x="21" y="10" width="1" height="1" fill="#FF0000" />
<rect x="22" y="10" width="1" height="1" fill="#FF0000" />
<rect x="23" y="10" width="1" height="1" fill="#FF0000" />
<rect x="24" y="10" width="1" height="1" fill="#FF0000" />
<rect x="25" y="10" width="1" height="1" fill="#FF0000" />
<rect x="4" y="11" width="1" height="1" fill="#FF0000" />
<rect x="5" y="11" width="1" height="1" fill="#FF0000" />
<rect x="6" y="11" width="1" height="1" fill="#FF0000" />
<rect x="7" y="11" width="1" height="1" fill="#FF0000" />
<rect x="8" y="11" width="1" height="1" fill="#FF0000" />
<rect x="9" y="11" width="1" height="1" fill="#FF0000" />
<rect x="10" y="11" width="1" height="1" fill="#FF0000" />
<rect x="11" y="11" width="1" height="1" fill="#FF0000" />
<rect x="12" y="11" width="1" height="1" fill="#FF0000" />
<rect x="13" y="11" width="1" height="1" fill="#FF0000" />
<rect x="14" y="11" width="1" height="1" fill="#FF0000" />
<rect x="15" y="11" width="1" height="1" fill="#FF0000" />
<rect x="16" y="11" width="1" height="1" fill="#FF0000" />
<rect x="17" y="11" width="1" height="1" fill="#FF0000" />
<rect x="19" y="11" width="1" height="1" fill="#FF0000" />
<rect x="20" y="11" width="1" height="1" fill="#FF0000" />
<rect x="21" y="11" width="1" height="1" fill="#FF0000" />
<rect x="22" y="11" width="1" height="1" fill="#FF0000" />
<rect x="23" y="11" width="1" height="1" fill="#FF0000" />
<rect x="24" y="11" width="1" height="1" fill="#FF0000" />
<rect x="25" y="11" width="1" height="1" fill="#FF0000" />
<rect x="4" y="12" width="1" height="1" fill="#FF0000" />
<rect x="16" y="12" width="1" height="1" fill="#FF0000" />
<rect x="19" y="12" width="1" height="1" fill="#FF0000" />
<rect x="25" y="12" width="1" height="1" fill="#FF0000" />
<rect x="4" y="13" width="1" height="1" fill="#FF0000" />
<rect x="16" y="13" width="1" height="1" fill="#FF0000" />
<rect x="19" y="13" width="1" height="1" fill="#FF0000" />
<rect x="25" y="13" width="1" height="1" fill="#FF0000" />
<rect x="26" y="13" width="1" height="1" fill="#FF0000" />
<rect x="27" y="13" width="1" height="1" fill="#FF0000" />
<rect x="28" y="13" width="1" height="1" fill="#FF0000" />
<rect x="29" y="13" width="1" height="1" fill="#FF0000" />
<rect x="0" y="14" width="1" height="1" fill="#FF0000" />
<rect x="1" y="14" width="1" height="1" fill="#FF0000" />
<rect x="2" y="14" width="1" height="1" fill="#FF0000" />
<rect x="3" y="14" width="1" height="1" fill="#FF0000" />
<rect x="4" y="14" width="1" height="1" fill="#FF0000" />
<rect x="16" y="14" width="1" height="1" fill="#FF0000" />
<rect x="19" y="14" width="1" height="1" fill="#FF0000" />
<rect x="25" y="14" width="1" height="1" fill="#FF0000" />
<rect x="26" y="14" width="1" height="1" fill="#FF0000" />
<rect x="27" y="14" width="1" height="1" fill="#FF0000" />
<rect x="28" y="14" width="1" height="1" fill="#FF0000" />
<rect x="29" y="14" width="1" height="1" fill="#FF0000" />
<rect x="0" y="15" width="1" height="1" fill="#FF0000" />
<rect x="1" y="15" width="1" height="1" fill="#FF0000" />
<rect x="2" y="15" width="1" height="1" fill="#FF0000" />
<rect x="3" y="15" width="1" height="1" fill="#FF0000" />
<rect x="4" y="15" width="1" height="1" fill="#FF0000" />
<rect x="19" y="15" width="1" height="1" fill="#FF0000" />
<rect x="25" y="15" width="1" height="1" fill="#FF0000" />
<rect x="29" y="15" width="1" height="1" fill="#FF0000" />
<rect x="0" y="16" width="1" height="1" fill="#FF0000" />
<rect x="4" y="16" width="1" height="1" fill="#FF0000" />
<rect x="16" y="16" width="1" height="1" fill="#FF0000" />
<rect x="17" y="16" width="1" height="1" fill="#FF0000" />
<rect x="19" y="16" width="1" height="1" fill="#FF0000" />
<rect x="22" y="16" width="1" height="1" fill="#FF0000" />
<rect x="23" y="16" width="1" height="1" fill="#FF0000" />
<rect x="24" y="16" width="1" height="1" fill="#FF0000" />
<rect x="25" y="16" width="1" height="1" fill="#FF0000" />
<rect x="29" y="16" width="1" height="1" fill="#FF0000" />
<rect x="0" y="17" width="1" height="1" fill="#FF0000" />
<rect x="4" y="17" width="1" height="1" fill="#FF0000" />
<rect x="16" y="17" width="1" height="1" fill="#FF0000" />
<rect x="29" y="17" width="1" height="1" fill="#FF0000" />
<rect x="0" y="18" width="1" height="1" fill="#FF0000" />
<rect x="16" y="18" width="1" height="1" fill="#FF0000" />
<rect x="17" y="18" width="1" height="1" fill="#FF0000" />
<rect x="18" y="18" width="1" height="1" fill="#FF0000" />
<rect x="19" y="18" width="1" height="1" fill="#FF0000" />
<rect x="20" y="18" width="1" height="1" fill="#FF0000" />
<rect x="21" y="18" width="1" height="1" fill="#FF0000" />
<rect x="22" y="18" width="1" height="1" fill="#FF0000" />
<rect x="23" y="18" width="1" height="1" fill="#FF0000" />
<rect x="24" y="18" width="1" height="1" fill="#FF0000" />
<rect x="25" y="18" width="1" height="1" fill="#FF0000" />
<rect x="29" y="18" width="1" height="1" fill="#FF0000" />
<rect x="0" y="19" width="1" height="1" fill="#FF0000" />
<rect x="4" y="19" width="1" height="1" fill="#FF0000" />
<rect x="16" y="19" width="1" height="1" fill="#FF0000" />
<rect x="25" y="19" width="1" height="1" fill="#FF0000" />
<rect x="26" y="19" width="1" height="1" fill="#FF0000" />
<rect x="27" y="19" width="1" height="1" fill="#FF0000" />
<rect x="28" y="19" width="1" height="1" fill="#FF0000" />
<rect x="29" y="19" width="1" height="1" fill="#FF0000" />
<rect x="0" y="20" width="1" height="1" fill="#FF0000" />
<rect x="4" y="20" width="1" height="1" fill="#FF0000" />
<rect x="16" y="20" width="1" height="1" fill="#FF0000" />
<rect x="0" y="21" width="1" height="1" fill="#FF0000" />
<rect x="1" y="21" width="1" height="1" fill="#FF0000" />
<rect x="2" y="21" width="1" height="1" fill="#FF0000" />
<rect x="3" y="21" width="1" height="1" fill="#FF0000" />
<rect x="4" y="21" width="1" height="1" fill="#FF0000" />
<rect x="5" y="21" width="1" height="1" fill="#FF0000" />
<rect x="6" y="21" width="1" height="1" fill="#FF0000" />
<rect x="7" y="21" width="1" height="1" fill="#FF0000" />
<rect x="8" y="21" width="1" height="1" fill="#FF0000" />
<rect x="9" y="21" width="1" height="1" fill="#FF0000" />
<rect x="10" y="21" width="1" height="1" fill="#FF0000" />
<rect x="11" y="21" width="1" height="1" fill="#FF0000" />
<rect x="12" y="21" width="1" height="1" fill="#FF0000" />
<rect x="13" y="21" width="1" height="1" fill="#FF0000" />
<rect x="14" y="21" width="1" height="1" fill="#FF0000" />
<rect x="15" y="21" width="1" height="1" fill="#FF0000" />
<rect x="16" y="21" width="1" height="1" fill="#FF0000" />
</svg>