<?xml version="1.0" encoding="UTF-8" ?>
<svg version="1.1" width="35" height="11" xmlns="http://www.w3.org/2000/svg" shape-rendering="crispEdges">
<rect x="2" y="1" width="1" height="1" fill="#130306" />
<rect x="3" y="1" width="1" height="1" fill="#130306" />
<rect x="4" y="1" width="1" height="1" fill="#130306" />
<rect x="5" y="1" width="1" height="1" fill="#130306" />
<rect x="6" y="1" width="1" height="1" fill="#130306" />
<rect x="7" y="1" width="1" height="1" fill="#130306" />
<rect x="8" y="1" width="1" height="1" fill="#130306" />
<rect x="1" y="2" width="1" height="1" fill="#130306" />
<rect x="2" y="2" width="1" height="1" fill="#130306" />
<rect x="3" y="2" width="1" height="1" fill="#6C192B" />
<rect x="4" y="2" width="1" height="1" fill="#6C192B" />
<rect x="5" y="2" width="1" height="1" fill="#130306" />
<rect x="6" y="2" width="1" height="1" fill="#6C192B" />
<rect x="7" y="2" width="1" height="1" fill="#6C192B" />
<rect x="8" y="2" width="1" height="1" fill="#130306" />
<rect x="9" y="2" width="1" height="1" fill="#130306" />
<rect x="10" y="2" width="1" height="1" fill="#130306" />
<rect x="11" y="2" width="1" height="1" fill="#130306" />
<rect x="12" y="2" width="1" height="1" fill="#130306" />
<rect x="13" y="2" width="1" height="1" fill="#130306" />
<rect x="14" y="2" width="1" height="1" fill="#130306" />
<rect x="15" y="2" width="1" height="1" fill="#130306" />
<rect x="16" y="2" width="1" height="1" fill="#130306" />
<rect x="17" y="2" width="1" height="1" fill="#130306" />
<rect x="18" y="2" width="1" height="1" fill="#130306" />
<rect x="19" y="2" width="1" height="1" fill="#130306" />
<rect x="20" y="2" width="1" height="1" fill="#130306" />
<rect x="21" y="2" width="1" height="1" fill="#130306" />
<rect x="22" y="2" width="1" height="1" fill="#130306" />
<rect x="23" y="2" width="1" height="1" fill="#130306" />
<rect x="24" y="2" width="1" height="1" fill="#130306" />
<rect x="25" y="2" width="1" height="1" fill="#130306" />
<rect x="26" y="2" width="1" height="1" fill="#130306" />
<rect x="27" y="2" width="1" height="1" fill="#130306" />
<rect x="28" y="2" width="1" height="1" fill="#130306" />
<rect x="29" y="2" width="1" height="1" fill="#130306" />
<rect x="30" y="2" width="1" height="1" fill="#130306" />
<rect x="31" y="2" width="1" height="1" fill="#130306" />
<rect x="32" y="2" width="1" height="1" fill="#130306" />
<rect x="1" y="3" width="1" height="1" fill="#130306" />
<rect x="2" y="3" width="1" height="1" fill="#6C192B" />
<rect x="3" y="3" width="1" height="1" fill="#AF2424" />
<rect x="4" y="3" width="1" height="1" fill="#AF2424" />
<rect x="5" y="3" width="1" height="1" fill="#6C192B" />
<rect x="6" y="3" width="1" height="1" fill="#AF2424" />
<rect x="7" y="3" width="1" height="1" fill="#AF2424" />
<rect x="8" y="3" width="1" height="1" fill="#6C192B" />
<rect x="9" y="3" width="1" height="1" fill="#130306" />
<rect x="10" y="3" width="1" height="1" fill="#130306" />
<rect x="11" y="3" width="1" height="1" fill="#23070D" />
<rect x="12" y="3" width="1" height="1" fill="#23070D" />
<rect x="13" y="3" width="1" height="1" fill="#23070D" />
<rect x="14" y="3" width="1" height="1" fill="#23070D" />
<rect x="15" y="3" width="1" height="1" fill="#23070D" />
<rect x="16" y="3" width="1" height="1" fill="#23070D" />
<rect x="17" y="3" width="1" height="1" fill="#23070D" />
<rect x="18" y="3" width="1" height="1" fill="#23070D" />
<rect x="19" y="3" width="1" height="1" fill="#23070D" />
<rect x="20" y="3" width="1" height="1" fill="#23070D" />
<rect x="21" y="3" width="1" height="1" fill="#23070D" />
<rect x="22" y="3" width="1" height="1" fill="#23070D" />
<rect x="23" y="3" width="1" height="1" fill="#23070D" />
<rect x="24" y="3" width="1" height="1" fill="#23070D" />
<rect x="25" y="3" width="1" height="1" fill="#23070D" />
<rect x="26" y="3" width="1" height="1" fill="#23070D" />
<rect x="27" y="3" width="1" height="1" fill="#23070D" />
<rect x="28" y="3" width="1" height="1" fill="#23070D" />
<rect x="29" y="3" width="1" height="1" fill="#23070D" />
<rect x="30" y="3" width="1" height="1" fill="#23070D" />
<rect x="31" y="3" width="1" height="1" fill="#23070D" />
<rect x="32" y="3" width="1" height="1" fill="#130306" />
<rect x="33" y="3" width="1" height="1" fill="#130306" />
<rect x="1" y="4" width="1" height="1" fill="#130306" />
<rect x="2" y="4" width="1" height="1" fill="#AF2424" />
<rect x="3" y="4" width="1" height="1" fill="#AF2424" />
<rect x="4" y="4" width="1" height="1" fill="#AF2424" />
<rect x="5" y="4" width="1" height="1" fill="#AF2424" />
<rect x="6" y="4" width="1" height="1" fill="#AF2424" />
<rect x="7" y="4" width="1" height="1" fill="#AF2424" />
<rect x="8" y="4" width="1" height="1" fill="#AF2424" />
<rect x="9" y="4" width="1" height="1" fill="#130306" />
<rect x="10" y="4" width="1" height="1" fill="#41141E" />
<rect x="11" y="4" width="1" height="1" fill="#41141E" />
<rect x="12" y="4" width="1" height="1" fill="#41141E" />
<rect x="13" y="4" width="1" height="1" fill="#41141E" />
<rect x="14" y="4" width="1" height="1" fill="#41141E" />
<rect x="15" y="4" width="1" height="1" fill="#41141E" />
<rect x="16" y="4" width="1" height="1" fill="#41141E" />
<rect x="17" y="4" width="1" height="1" fill="#41141E" />
<rect x="18" y="4" width="1" height="1" fill="#41141E" />
<rect x="19" y="4" width="1" height="1" fill="#41141E" />
<rect x="20" y="4" width="1" height="1" fill="#41141E" />
<rect x="21" y="4" width="1" height="1" fill="#41141E" />
<rect x="22" y="4" width="1" height="1" fill="#41141E" />
<rect x="23" y="4" width="1" height="1" fill="#41141E" />
<rect x="24" y="4" width="1" height="1" fill="#41141E" />
<rect x="25" y="4" width="1" height="1" fill="#41141E" />
<rect x="26" y="4" width="1" height="1" fill="#41141E" />
<rect x="27" y="4" width="1" height="1" fill="#41141E" />
<rect x="28" y="4" width="1" height="1" fill="#41141E" />
<rect x="29" y="4" width="1" height="1" fill="#41141E" />
<rect x="30" y="4" width="1" height="1" fill="#41141E" />
<rect x="31" y="4" width="1" height="1" fill="#41141E" />
<rect x="32" y="4" width="1" height="1" fill="#23070D" />
<rect x="33" y="4" width="1" height="1" fill="#130306" />
<rect x="1" y="5" width="1" height="1" fill="#130306" />
<rect x="2" y="5" width="1" height="1" fill="#4D0C1E" />
<rect x="3" y="5" width="1" height="1" fill="#AF2424" />
<rect x="4" y="5" width="1" height="1" fill="#AF2424" />
<rect x="5" y="5" width="1" height="1" fill="#AF2424" />
<rect x="6" y="5" width="1" height="1" fill="#AF2424" />
<rect x="7" y="5" width="1" height="1" fill="#AF2424" />
<rect x="8" y="5" width="1" height="1" fill="#4D0C1E" />
<rect x="9" y="5" width="1" height="1" fill="#130306" />
<rect x="10" y="5" width="1" height="1" fill="#41141E" />
<rect x="11" y="5" width="1" height="1" fill="#41141E" />
<rect x="12" y="5" width="1" height="1" fill="#41141E" />
<rect x="13" y="5" width="1" height="1" fill="#41141E" />
<rect x="14" y="5" width="1" height="1" fill="#41141E" />
<rect x="15" y="5" width="1" height="1" fill="#41141E" />
<rect x="16" y="5" width="1" height="1" fill="#41141E" />
<rect x="17" y="5" width="1" height="1" fill="#41141E" />
<rect x="18" y="5" width="1" height="1" fill="#41141E" />
<rect x="19" y="5" width="1" height="1" fill="#41141E" />
<rect x="20" y="5" width="1" height="1" fill="#41141E" />
<rect x="21" y="5" width="1" height="1" fill="#41141E" />
<rect x="22" y="5" width="1" height="1" fill="#41141E" />
<rect x="23" y="5" width="1" height="1" fill="#41141E" />
<rect x="24" y="5" width="1" height="1" fill="#41141E" />
<rect x="25" y="5" width="1" height="1" fill="#41141E" />
<rect x="26" y="5" width="1" height="1" fill="#41141E" />
<rect x="27" y="5" width="1" height="1" fill="#41141E" />
<rect x="28" y="5" width="1" height="1" fill="#41141E" />
<rect x="29" y="5" width="1" height="1" fill="#41141E" />
<rect x="30" y="5" width="1" height="1" fill="#41141E" />
<rect x="31" y="5" width="1" height="1" fill="#41141E" />
<rect x="32" y="5" width="1" height="1" fill="#41141E" />
<rect x="33" y="5" width="1" height="1" fill="#130306" />
<rect x="1" y="6" width="1" height="1" fill="#130306" />
<rect x="2" y="6" width="1" height="1" fill="#130306" />
<rect x="3" y="6" width="1" height="1" fill="#4D0C1E" />
<rect x="4" y="6" width="1" height="1" fill="#AF2424" />
<rect x="5" y="6" width="1" height="1" fill="#AF2424" />
<rect x="6" y="6" width="1" height="1" fill="#AF2424" />
<rect x="7" y="6" width="1" height="1" fill="#4D0C1E" />
<rect x="8" y="6" width="1" height="1" fill="#130306" />
<rect x="9" y="6" width="1" height="1" fill="#130306" />
<rect x="10" y="6" width="1" height="1" fill="#130306" />
<rect x="11" y="6" width="1" height="1" fill="#41141E" />
<rect x="12" y="6" width="1" height="1" fill="#41141E" />
<rect x="13" y="6" width="1" height="1" fill="#41141E" />
<rect x="14" y="6" width="1" height="1" fill="#41141E" />
<rect x="15" y="6" width="1" height="1" fill="#41141E" />
<rect x="16" y="6" width="1" height="1" fill="#41141E" />
<rect x="17" y="6" width="1" height="1" fill="#41141E" />
<rect x="18" y="6" width="1" height="1" fill="#41141E" />
<rect x="19" y="6" width="1" height="1" fill="#41141E" />
<rect x="20" y="6" width="1" height="1" fill="#41141E" />
<rect x="21" y="6" width="1" height="1" fill="#41141E" />
<rect x="22" y="6" width="1" height="1" fill="#41141E" />
<rect x="23" y="6" width="1" height="1" fill="#41141E" />
<rect x="24" y="6" width="1" height="1" fill="#41141E" />
<rect x="25" y="6" width="1" height="1" fill="#41141E" />
<rect x="26" y="6" width="1" height="1" fill="#41141E" />
<rect x="27" y="6" width="1" height="1" fill="#41141E" />
<rect x="28" y="6" width="1" height="1" fill="#41141E" />
<rect x="29" y="6" width="1" height="1" fill="#41141E" />
<rect x="30" y="6" width="1" height="1" fill="#41141E" />
<rect x="31" y="6" width="1" height="1" fill="#41141E" />
<rect x="32" y="6" width="1" height="1" fill="#130306" />
<rect x="33" y="6" width="1" height="1" fill="#130306" />
<rect x="2" y="7" width="1" height="1" fill="#130306" />
<rect x="3" y="7" width="1" height="1" fill="#130306" />
<rect x="4" y="7" width="1" height="1" fill="#4D0C1E" />
<rect x="5" y="7" width="1" height="1" fill="#AF2424" />
<rect x="6" y="7" width="1" height="1" fill="#4D0C1E" />
<rect x="7" y="7" width="1" height="1" fill="#130306" />
<rect x="8" y="7" width="1" height="1" fill="#130306" />
<rect x="9" y="7" width="1" height="1" fill="#130306" />
<rect x="10" y="7" width="1" height="1" fill="#130306" />
<rect x="11" y="7" width="1" height="1" fill="#130306" />
<rect x="12" y="7" width="1" height="1" fill="#130306" />
<rect x="13" y="7" width="1" height="1" fill="#130306" />
<rect x="14" y="7" width="1" height="1" fill="#130306" />
<rect x="15" y="7" width="1" height="1" fill="#130306" />
<rect x="16" y="7" width="1" height="1" fill="#130306" />
<rect x="17" y="7" width="1" height="1" fill="#130306" />
<rect x="18" y="7" width="1" height="1" fill="#130306" />
<rect x="19" y="7" width="1" height="1" fill="#130306" />
<rect x="20" y="7" width="1" height="1" fill="#130306" />
<rect x="21" y="7" width="1" height="1" fill="#130306" />
<rect x="22" y="7" width="1" height="1" fill="#130306" />
<rect x="23" y="7" width="1" height="1" fill="#130306" />
<rect x="24" y="7" width="1" height="1" fill="#130306" />
<rect x="25" y="7" width="1" height="1" fill="#130306" />
<rect x="26" y="7" width="1" height="1" fill="#130306" />
<rect x="27" y="7" width="1" height="1" fill="#130306" />
<rect x="28" y="7" width="1" height="1" fill="#130306" />
<rect x="29" y="7" width="1" height="1" fill="#130306" />
<rect x="30" y="7" width="1" height="1" fill="#130306" />
<rect x="31" y="7" width="1" height="1" fill="#130306" />
<rect x="32" y="7" width="1" height="1" fill="#130306" />
<rect x="3" y="8" width="1" height="1" fill="#130306" />
<rect x="4" y="8" width="1" height="1" fill="#130306" />
<rect x="5" y="8" width="1" height="1" fill="#4D0C1E" />
<rect x="6" y="8" width="1" height="1" fill="#130306" />
<rect x="7" y="8" width="1" height="1" fill="#130306" />
<rect x="4" y="9" width="1" height="1" fill="#130306" />
<rect x="5" y="9" width="1" height="1" fill="#130306" />
<rect x="6" y="9" width="1" height="1" fill="#130306" />
</svg>