<?xml version="1.0" encoding="UTF-8" ?>
<svg version="1.1" width="19" height="36" xmlns="http://www.w3.org/2000/svg" shape-rendering="crispEdges">
<rect x="10" y="0" width="1" height="1" fill="#FF0000" />
<rect x="11" y="0" width="1" height="1" fill="#FF0000" />
<rect x="12" y="0" width="1" height="1" fill="#FF0000" />
<rect x="13" y="0" width="1" height="1" fill="#FF0000" />
<rect x="14" y="0" width="1" height="1" fill="#FF0000" />
<rect x="15" y="0" width="1" height="1" fill="#FF0000" />
<rect x="16" y="0" width="1" height="1" fill="#FF0000" />
<rect x="17" y="0" width="1" height="1" fill="#FF0000" />
<rect x="18" y="0" width="1" height="1" fill="#FF0000" />
<rect x="10" y="1" width="1" height="1" fill="#FF0000" />
<rect x="11" y="1" width="1" height="1" fill="#FF0000" />
<rect x="12" y="1" width="1" height="1" fill="#FF0000" />
<rect x="13" y="1" width="1" height="1" fill="#FF0000" />
<rect x="14" y="1" width="1" height="1" fill="#FF0000" />
<rect x="15" y="1" width="1" height="1" fill="#FF0000" />
<rect x="16" y="1" width="1" height="1" fill="#FF0000" />
<rect x="17" y="1" width="1" height="1" fill="#FF0000" />
<rect x="18" y="1" width="1" height="1" fill="#FF0000" />
<rect x="10" y="2" width="1" height="1" fill="#FF0000" />
<rect x="11" y="2" width="1" height="1" fill="#FF0000" />
<rect x="12" y="2" width="1" height="1" fill="#FF0000" />
<rect x="13" y="2" width="1" height="1" fill="#FF0000" />
<rect x="14" y="2" width="1" height="1" fill="#FF0000" />
<rect x="15" y="2" width="1" height="1" fill="#FF0000" />
<rect x="16" y="2" width="1" height="1" fill="#FF0000" />
<rect x="17" y="2" width="1" height="1" fill="#FF0000" />
<rect x="18" y="2" width="1" height="1" fill="#FF0000" />
<rect x="10" y="3" width="1" height="1" fill="#FF0000" />
<rect x="11" y="3" width="1" height="1" fill="#FF0000" />
<rect x="12" y="3" width="1" height="1" fill="#FF0000" />
<rect x="13" y="3" width="1" height="1" fill="#FF0000" />
<rect x="14" y="3" width="1" height="1" fill="#FF0000" />
<rect x="15" y="3" width="1" height="1" fill="#FF0000" />
<rect x="16" y="3" width="1" height="1" fill="#FF0000" />
<rect x="17" y="3" width="1" height="1" fill="#FF0000" />
<rect x="18" y="3" width="1" height="1" fill="#FF0000" />
<rect x="10" y="4" width="1" height="1" fill="#FF0000" />
<rect x="11" y="4" width="1" height="1" fill="#FF0000" />
<rect x="12" y="4" width="1" height="1" fill="#FF0000" />
<rect x="13" y="4" width="1" height="1" fill="#FF0000" />
<rect x="14" y="4" width="1" height="1" fill="#FF0000" />
<rect x="15" y="4" width="1" height="1" fill="#FF0000" />
<rect x="16" y="4" width="1" height="1" fill="#FF0000" />
<rect x="17" y="4" width="1" height="1" fill="#FF0000" />
<rect x="18" y="4" width="1" height="1" fill="#FF0000" />
<rect x="10" y="5" width="1" height="1" fill="#FF0000" />
<rect x="11" y="5" width="1" height="1" fill="#FF0000" />
<rect x="12" y="5" width="1" height="1" fill="#FF0000" />
<rect x="13" y="5" width="1" height="1" fill="#FF0000" />
<rect x="14" y="5" width="1" height="1" fill="#FF0000" />
<rect x="15" y="5" width="1" height="1" fill="#FF0000" />
<rect x="16" y="5" width="1" height="1" fill="#FF0000" />
<rect x="17" y="5" width="1" height="1" fill="#FF0000" />
<rect x="18" y="5" width="1" height="1" fill="#FF0000" />
<rect x="10" y="6" width="1" height="1" fill="#FF0000" />
<rect x="11" y="6" width="1" height="1" fill="#FF0000" />
<rect x="12" y="6" width="1" height="1" fill="#FF0000" />
<rect x="13" y="6" width="1" height="1" fill="#FF0000" />
<rect x="14" y="6" width="1" height="1" fill="#FF0000" />
<rect x="15" y="6" width="1" height="1" fill="#FF0000" />
<rect x="16" y="6" width="1" height="1" fill="#FF0000" />
<rect x="17" y="6" width="1" height="1" fill="#FF0000" />
<rect x="18" y="6" width="1" height="1" fill="#FF0000" />
<rect x="10" y="7" width="1" height="1" fill="#FF0000" />
<rect x="11" y="7" width="1" height="1" fill="#FF0000" />
<rect x="12" y="7" width="1" height="1" fill="#FF0000" />
<rect x="13" y="7" width="1" height="1" fill="#FF0000" />
<rect x="14" y="7" width="1" height="1" fill="#FF0000" />
<rect x="15" y="7" width="1" height="1" fill="#FF0000" />
<rect x="16" y="7" width="1" height="1" fill="#FF0000" />
<rect x="17" y="7" width="1" height="1" fill="#FF0000" />
<rect x="18" y="7" width="1" height="1" fill="#FF0000" />
<rect x="10" y="8" width="1" height="1" fill="#FF0000" />
<rect x="11" y="8" width="1" height="1" fill="#FF0000" />
<rect x="12" y="8" width="1" height="1" fill="#FF0000" />
<rect x="13" y="8" width="1" height="1" fill="#FF0000" />
<rect x="14" y="8" width="1" height="1" fill="#FF0000" />
<rect x="15" y="8" width="1" height="1" fill="#FF0000" />
<rect x="16" y="8" width="1" height="1" fill="#FF0000" />
<rect x="17" y="8" width="1" height="1" fill="#FF0000" />
<rect x="18" y="8" width="1" height="1" fill="#FF0000" />
<rect x="14" y="9" width="1" height="1" fill="#FF0000" />
<rect x="14" y="10" width="1" height="1" fill="#FF0000" />
<rect x="1" y="11" width="1" height="1" fill="#FF0000" />
<rect x="2" y="11" width="1" height="1" fill="#FF0000" />
<rect x="3" y="11" width="1" height="1" fill="#FF0000" />
<rect x="4" y="11" width="1" height="1" fill="#FF0000" />
<rect x="14" y="11" width="1" height="1" fill="#FF0000" />
<rect x="0" y="12" width="1" height="1" fill="#FF0000" />
<rect x="1" y="12" width="1" height="1" fill="#FF0000" />
<rect x="2" y="12" width="1" height="1" fill="#FF0000" />
<rect x="3" y="12" width="1" height="1" fill="#FF0000" />
<rect x="4" y="12" width="1" height="1" fill="#FF0000" />
<rect x="5" y="12" width="1" height="1" fill="#FF0000" />
<rect x="12" y="12" width="1" height="1" fill="#FF0000" />
<rect x="13" y="12" width="1" height="1" fill="#FF0000" />
<rect x="14" y="12" width="1" height="1" fill="#FF0000" />
<rect x="15" y="12" width="1" height="1" fill="#FF0000" />
<rect x="16" y="12" width="1" height="1" fill="#FF0000" />
<rect x="0" y="13" width="1" height="1" fill="#FF0000" />
<rect x="1" y="13" width="1" height="1" fill="#FF0000" />
<rect x="2" y="13" width="1" height="1" fill="#FF0000" />
<rect x="3" y="13" width="1" height="1" fill="#FF0000" />
<rect x="4" y="13" width="1" height="1" fill="#FF0000" />
<rect x="5" y="13" width="1" height="1" fill="#FF0000" />
<rect x="12" y="13" width="1" height="1" fill="#FF0000" />
<rect x="13" y="13" width="1" height="1" fill="#FF0000" />
<rect x="14" y="13" width="1" height="1" fill="#FF0000" />
<rect x="15" y="13" width="1" height="1" fill="#FF0000" />
<rect x="16" y="13" width="1" height="1" fill="#FF0000" />
<rect x="0" y="14" width="1" height="1" fill="#FF0000" />
<rect x="1" y="14" width="1" height="1" fill="#FF0000" />
<rect x="2" y="14" width="1" height="1" fill="#FF0000" />
<rect x="3" y="14" width="1" height="1" fill="#FF0000" />
<rect x="4" y="14" width="1" height="1" fill="#FF0000" />
<rect x="5" y="14" width="1" height="1" fill="#FF0000" />
<rect x="12" y="14" width="1" height="1" fill="#FF0000" />
<rect x="13" y="14" width="1" height="1" fill="#FF0000" />
<rect x="14" y="14" width="1" height="1" fill="#FF0000" />
<rect x="15" y="14" width="1" height="1" fill="#FF0000" />
<rect x="16" y="14" width="1" height="1" fill="#FF0000" />
<rect x="0" y="15" width="1" height="1" fill="#FF0000" />
<rect x="1" y="15" width="1" height="1" fill="#FF0000" />
<rect x="2" y="15" width="1" height="1" fill="#FF0000" />
<rect x="3" y="15" width="1" height="1" fill="#FF0000" />
<rect x="4" y="15" width="1" height="1" fill="#FF0000" />
<rect x="5" y="15" width="1" height="1" fill="#FF0000" />
<rect x="12" y="15" width="1" height="1" fill="#FF0000" />
<rect x="13" y="15" width="1" height="1" fill="#FF0000" />
<rect x="14" y="15" width="1" height="1" fill="#FF0000" />
<rect x="15" y="15" width="1" height="1" fill="#FF0000" />
<rect x="16" y="15" width="1" height="1" fill="#FF0000" />
<rect x="1" y="16" width="1" height="1" fill="#FF0000" />
<rect x="2" y="16" width="1" height="1" fill="#FF0000" />
<rect x="3" y="16" width="1" height="1" fill="#FF0000" />
<rect x="4" y="16" width="1" height="1" fill="#FF0000" />
<rect x="12" y="16" width="1" height="1" fill="#FF0000" />
<rect x="13" y="16" width="1" height="1" fill="#FF0000" />
<rect x="14" y="16" width="1" height="1" fill="#FF0000" />
<rect x="15" y="16" width="1" height="1" fill="#FF0000" />
<rect x="16" y="16" width="1" height="1" fill="#FF0000" />
<rect x="2" y="17" width="1" height="1" fill="#FF0000" />
<rect x="3" y="17" width="1" height="1" fill="#FF0000" />
<rect x="14" y="17" width="1" height="1" fill="#FF0000" />
<rect x="2" y="18" width="1" height="1" fill="#FF0000" />
<rect x="3" y="18" width="1" height="1" fill="#FF0000" />
<rect x="14" y="18" width="1" height="1" fill="#FF0000" />
<rect x="2" y="19" width="1" height="1" fill="#FF0000" />
<rect x="3" y="19" width="1" height="1" fill="#FF0000" />
<rect x="14" y="19" width="1" height="1" fill="#FF0000" />
<rect x="1" y="20" width="1" height="1" fill="#FF0000" />
<rect x="2" y="20" width="1" height="1" fill="#FF0000" />
<rect x="3" y="20" width="1" height="1" fill="#FF0000" />
<rect x="4" y="20" width="1" height="1" fill="#FF0000" />
<rect x="5" y="20" width="1" height="1" fill="#FF0000" />
<rect x="6" y="20" width="1" height="1" fill="#FF0000" />
<rect x="7" y="20" width="1" height="1" fill="#FF0000" />
<rect x="12" y="20" width="1" height="1" fill="#FF0000" />
<rect x="13" y="20" width="1" height="1" fill="#FF0000" />
<rect x="14" y="20" width="1" height="1" fill="#FF0000" />
<rect x="15" y="20" width="1" height="1" fill="#FF0000" />
<rect x="16" y="20" width="1" height="1" fill="#FF0000" />
<rect x="1" y="21" width="1" height="1" fill="#FF0000" />
<rect x="2" y="21" width="1" height="1" fill="#FF0000" />
<rect x="3" y="21" width="1" height="1" fill="#FF0000" />
<rect x="4" y="21" width="1" height="1" fill="#FF0000" />
<rect x="5" y="21" width="1" height="1" fill="#FF0000" />
<rect x="6" y="21" width="1" height="1" fill="#FF0000" />
<rect x="7" y="21" width="1" height="1" fill="#FF0000" />
<rect x="12" y="21" width="1" height="1" fill="#FF0000" />
<rect x="13" y="21" width="1" height="1" fill="#FF0000" />
<rect x="14" y="21" width="1" height="1" fill="#FF0000" />
<rect x="15" y="21" width="1" height="1" fill="#FF0000" />
<rect x="16" y="21" width="1" height="1" fill="#FF0000" />
<rect x="1" y="22" width="1" height="1" fill="#FF0000" />
<rect x="2" y="22" width="1" height="1" fill="#FF0000" />
<rect x="3" y="22" width="1" height="1" fill="#FF0000" />
<rect x="4" y="22" width="1" height="1" fill="#FF0000" />
<rect x="5" y="22" width="1" height="1" fill="#FF0000" />
<rect x="6" y="22" width="1" height="1" fill="#FF0000" />
<rect x="7" y="22" width="1" height="1" fill="#FF0000" />
<rect x="8" y="22" width="1" height="1" fill="#FF0000" />
<rect x="9" y="22" width="1" height="1" fill="#FF0000" />
<rect x="10" y="22" width="1" height="1" fill="#FF0000" />
<rect x="11" y="22" width="1" height="1" fill="#FF0000" />
<rect x="12" y="22" width="1" height="1" fill="#FF0000" />
<rect x="13" y="22" width="1" height="1" fill="#FF0000" />
<rect x="14" y="22" width="1" height="1" fill="#FF0000" />
<rect x="15" y="22" width="1" height="1" fill="#FF0000" />
<rect x="16" y="22" width="1" height="1" fill="#FF0000" />
<rect x="1" y="23" width="1" height="1" fill="#FF0000" />
<rect x="2" y="23" width="1" height="1" fill="#FF0000" />
<rect x="3" y="23" width="1" height="1" fill="#FF0000" />
<rect x="4" y="23" width="1" height="1" fill="#FF0000" />
<rect x="5" y="23" width="1" height="1" fill="#FF0000" />
<rect x="6" y="23" width="1" height="1" fill="#FF0000" />
<rect x="7" y="23" width="1" height="1" fill="#FF0000" />
<rect x="12" y="23" width="1" height="1" fill="#FF0000" />
<rect x="13" y="23" width="1" height="1" fill="#FF0000" />
<rect x="14" y="23" width="1" height="1" fill="#FF0000" />
<rect x="15" y="23" width="1" height="1" fill="#FF0000" />
<rect x="16" y="23" width="1" height="1" fill="#FF0000" />
<rect x="1" y="24" width="1" height="1" fill="#FF0000" />
<rect x="2" y="24" width="1" height="1" fill="#FF0000" />
<rect x="3" y="24" width="1" height="1" fill="#FF0000" />
<rect x="4" y="24" width="1" height="1" fill="#FF0000" />
<rect x="5" y="24" width="1" height="1" fill="#FF0000" />
<rect x="6" y="24" width="1" height="1" fill="#FF0000" />
<rect x="7" y="24" width="1" height="1" fill="#FF0000" />
<rect x="12" y="24" width="1" height="1" fill="#FF0000" />
<rect x="13" y="24" width="1" height="1" fill="#FF0000" />
<rect x="14" y="24" width="1" height="1" fill="#FF0000" />
<rect x="15" y="24" width="1" height="1" fill="#FF0000" />
<rect x="16" y="24" width="1" height="1" fill="#FF0000" />
<rect x="14" y="25" width="1" height="1" fill="#FF0000" />
<rect x="14" y="26" width="1" height="1" fill="#FF0000" />
<rect x="14" y="27" width="1" height="1" fill="#FF0000" />
<rect x="12" y="28" width="1" height="1" fill="#FF0000" />
<rect x="13" y="28" width="1" height="1" fill="#FF0000" />
<rect x="14" y="28" width="1" height="1" fill="#FF0000" />
<rect x="15" y="28" width="1" height="1" fill="#FF0000" />
<rect x="16" y="28" width="1" height="1" fill="#FF0000" />
<rect x="12" y="29" width="1" height="1" fill="#FF0000" />
<rect x="13" y="29" width="1" height="1" fill="#FF0000" />
<rect x="14" y="29" width="1" height="1" fill="#FF0000" />
<rect x="15" y="29" width="1" height="1" fill="#FF0000" />
<rect x="16" y="29" width="1" height="1" fill="#FF0000" />
<rect x="12" y="30" width="1" height="1" fill="#FF0000" />
<rect x="13" y="30" width="1" height="1" fill="#FF0000" />
<rect x="14" y="30" width="1" height="1" fill="#FF0000" />
<rect x="15" y="30" width="1" height="1" fill="#FF0000" />
<rect x="16" y="30" width="1" height="1" fill="#FF0000" />
<rect x="12" y="31" width="1" height="1" fill="#FF0000" />
<rect x="13" y="31" width="1" height="1" fill="#FF0000" />
<rect x="14" y="31" width="1" height="1" fill="#FF0000" />
<rect x="15" y="31" width="1" height="1" fill="#FF0000" />
<rect x="16" y="31" width="1" height="1" fill="#FF0000" />
<rect x="12" y="32" width="1" height="1" fill="#FF0000" />
<rect x="13" y="32" width="1" height="1" fill="#FF0000" />
<rect x="14" y="32" width="1" height="1" fill="#FF0000" />
<rect x="15" y="32" width="1" height="1" fill="#FF0000" />
<rect x="16" y="32" width="1" height="1" fill="#FF0000" />
<rect x="14" y="33" width="1" height="1" fill="#FF0000" />
<rect x="14" y="34" width="1" height="1" fill="#FF0000" />
<rect x="14" y="35" width="1" height="1" fill="#FF0000" />
</svg>