<?xml version="1.0" encoding="UTF-8" ?>
<svg version="1.1" width="23" height="18" xmlns="http://www.w3.org/2000/svg" shape-rendering="crispEdges">
<rect x="8" y="0" width="1" height="1" fill="#FF0000" />
<rect x="9" y="0" width="1" height="1" fill="#FF0000" />
<rect x="10" y="0" width="1" height="1" fill="#FF0000" />
<rect x="11" y="0" width="1" height="1" fill="#FF0000" />
<rect x="12" y="0" width="1" height="1" fill="#FF0000" />
<rect x="13" y="0" width="1" height="1" fill="#FF0000" />
<rect x="14" y="0" width="1" height="1" fill="#FF0000" />
<rect x="8" y="1" width="1" height="1" fill="#FF0000" />
<rect x="9" y="1" width="1" height="1" fill="#FF0000" />
<rect x="10" y="1" width="1" height="1" fill="#FF0000" />
<rect x="11" y="1" width="1" height="1" fill="#FF0000" />
<rect x="12" y="1" width="1" height="1" fill="#FF0000" />
<rect x="13" y="1" width="1" height="1" fill="#FF0000" />
<rect x="14" y="1" width="1" height="1" fill="#FF0000" />
<rect x="8" y="2" width="1" height="1" fill="#FF0000" />
<rect x="9" y="2" width="1" height="1" fill="#FF0000" />
<rect x="10" y="2" width="1" height="1" fill="#FF0000" />
<rect x="11" y="2" width="1" height="1" fill="#FF0000" />
<rect x="12" y="2" width="1" height="1" fill="#FF0000" />
<rect x="13" y="2" width="1" height="1" fill="#FF0000" />
<rect x="14" y="2" width="1" height="1" fill="#FF0000" />
<rect x="8" y="3" width="1" height="1" fill="#FF0000" />
<rect x="9" y="3" width="1" height="1" fill="#FF0000" />
<rect x="10" y="3" width="1" height="1" fill="#FF0000" />
<rect x="11" y="3" width="1" height="1" fill="#FF0000" />
<rect x="12" y="3" width="1" height="1" fill="#FF0000" />
<rect x="13" y="3" width="1" height="1" fill="#FF0000" />
<rect x="14" y="3" width="1" height="1" fill="#FF0000" />
<rect x="8" y="4" width="1" height="1" fill="#FF0000" />
<rect x="9" y="4" width="1" height="1" fill="#FF0000" />
<rect x="10" y="4" width="1" height="1" fill="#FF0000" />
<rect x="11" y="4" width="1" height="1" fill="#FF0000" />
<rect x="12" y="4" width="1" height="1" fill="#FF0000" />
<rect x="13" y="4" width="1" height="1" fill="#FF0000" />
<rect x="14" y="4" width="1" height="1" fill="#FF0000" />
<rect x="8" y="5" width="1" height="1" fill="#FF0000" />
<rect x="9" y="5" width="1" height="1" fill="#FF0000" />
<rect x="10" y="5" width="1" height="1" fill="#FF0000" />
<rect x="11" y="5" width="1" height="1" fill="#FF0000" />
<rect x="12" y="5" width="1" height="1" fill="#FF0000" />
<rect x="13" y="5" width="1" height="1" fill="#FF0000" />
<rect x="14" y="5" width="1" height="1" fill="#FF0000" />
<rect x="8" y="6" width="1" height="1" fill="#FF0000" />
<rect x="9" y="6" width="1" height="1" fill="#FF0000" />
<rect x="10" y="6" width="1" height="1" fill="#FF0000" />
<rect x="11" y="6" width="1" height="1" fill="#FF0000" />
<rect x="12" y="6" width="1" height="1" fill="#FF0000" />
<rect x="13" y="6" width="1" height="1" fill="#FF0000" />
<rect x="14" y="6" width="1" height="1" fill="#FF0000" />
<rect x="11" y="7" width="1" height="1" fill="#FF0000" />
<rect x="11" y="8" width="1" height="1" fill="#FF0000" />
<rect x="11" y="9" width="1" height="1" fill="#FF0000" />
<rect x="11" y="10" width="1" height="1" fill="#FF0000" />
<rect x="0" y="11" width="1" height="1" fill="#FF0000" />
<rect x="1" y="11" width="1" height="1" fill="#FF0000" />
<rect x="2" y="11" width="1" height="1" fill="#FF0000" />
<rect x="3" y="11" width="1" height="1" fill="#FF0000" />
<rect x="4" y="11" width="1" height="1" fill="#FF0000" />
<rect x="9" y="11" width="1" height="1" fill="#FF0000" />
<rect x="10" y="11" width="1" height="1" fill="#FF0000" />
<rect x="11" y="11" width="1" height="1" fill="#FF0000" />
<rect x="12" y="11" width="1" height="1" fill="#FF0000" />
<rect x="13" y="11" width="1" height="1" fill="#FF0000" />
<rect x="18" y="11" width="1" height="1" fill="#FF0000" />
<rect x="19" y="11" width="1" height="1" fill="#FF0000" />
<rect x="20" y="11" width="1" height="1" fill="#FF0000" />
<rect x="21" y="11" width="1" height="1" fill="#FF0000" />
<rect x="22" y="11" width="1" height="1" fill="#FF0000" />
<rect x="0" y="12" width="1" height="1" fill="#FF0000" />
<rect x="1" y="12" width="1" height="1" fill="#FF0000" />
<rect x="2" y="12" width="1" height="1" fill="#FF0000" />
<rect x="3" y="12" width="1" height="1" fill="#FF0000" />
<rect x="4" y="12" width="1" height="1" fill="#FF0000" />
<rect x="9" y="12" width="1" height="1" fill="#FF0000" />
<rect x="10" y="12" width="1" height="1" fill="#FF0000" />
<rect x="11" y="12" width="1" height="1" fill="#FF0000" />
<rect x="12" y="12" width="1" height="1" fill="#FF0000" />
<rect x="13" y="12" width="1" height="1" fill="#FF0000" />
<rect x="18" y="12" width="1" height="1" fill="#FF0000" />
<rect x="19" y="12" width="1" height="1" fill="#FF0000" />
<rect x="20" y="12" width="1" height="1" fill="#FF0000" />
<rect x="21" y="12" width="1" height="1" fill="#FF0000" />
<rect x="22" y="12" width="1" height="1" fill="#FF0000" />
<rect x="0" y="13" width="1" height="1" fill="#FF0000" />
<rect x="1" y="13" width="1" height="1" fill="#FF0000" />
<rect x="2" y="13" width="1" height="1" fill="#FF0000" />
<rect x="3" y="13" width="1" height="1" fill="#FF0000" />
<rect x="4" y="13" width="1" height="1" fill="#FF0000" />
<rect x="5" y="13" width="1" height="1" fill="#FF0000" />
<rect x="6" y="13" width="1" height="1" fill="#FF0000" />
<rect x="7" y="13" width="1" height="1" fill="#FF0000" />
<rect x="8" y="13" width="1" height="1" fill="#FF0000" />
<rect x="9" y="13" width="1" height="1" fill="#FF0000" />
<rect x="10" y="13" width="1" height="1" fill="#FF0000" />
<rect x="11" y="13" width="1" height="1" fill="#FF0000" />
<rect x="12" y="13" width="1" height="1" fill="#FF0000" />
<rect x="13" y="13" width="1" height="1" fill="#FF0000" />
<rect x="14" y="13" width="1" height="1" fill="#FF0000" />
<rect x="15" y="13" width="1" height="1" fill="#FF0000" />
<rect x="16" y="13" width="1" height="1" fill="#FF0000" />
<rect x="17" y="13" width="1" height="1" fill="#FF0000" />
<rect x="18" y="13" width="1" height="1" fill="#FF0000" />
<rect x="19" y="13" width="1" height="1" fill="#FF0000" />
<rect x="20" y="13" width="1" height="1" fill="#FF0000" />
<rect x="21" y="13" width="1" height="1" fill="#FF0000" />
<rect x="22" y="13" width="1" height="1" fill="#FF0000" />
<rect x="0" y="14" width="1" height="1" fill="#FF0000" />
<rect x="1" y="14" width="1" height="1" fill="#FF0000" />
<rect x="2" y="14" width="1" height="1" fill="#FF0000" />
<rect x="3" y="14" width="1" height="1" fill="#FF0000" />
<rect x="4" y="14" width="1" height="1" fill="#FF0000" />
<rect x="9" y="14" width="1" height="1" fill="#FF0000" />
<rect x="10" y="14" width="1" height="1" fill="#FF0000" />
<rect x="11" y="14" width="1" height="1" fill="#FF0000" />
<rect x="12" y="14" width="1" height="1" fill="#FF0000" />
<rect x="13" y="14" width="1" height="1" fill="#FF0000" />
<rect x="18" y="14" width="1" height="1" fill="#FF0000" />
<rect x="19" y="14" width="1" height="1" fill="#FF0000" />
<rect x="20" y="14" width="1" height="1" fill="#FF0000" />
<rect x="21" y="14" width="1" height="1" fill="#FF0000" />
<rect x="22" y="14" width="1" height="1" fill="#FF0000" />
<rect x="0" y="15" width="1" height="1" fill="#FF0000" />
<rect x="1" y="15" width="1" height="1" fill="#FF0000" />
<rect x="2" y="15" width="1" height="1" fill="#FF0000" />
<rect x="3" y="15" width="1" height="1" fill="#FF0000" />
<rect x="4" y="15" width="1" height="1" fill="#FF0000" />
<rect x="9" y="15" width="1" height="1" fill="#FF0000" />
<rect x="10" y="15" width="1" height="1" fill="#FF0000" />
<rect x="11" y="15" width="1" height="1" fill="#FF0000" />
<rect x="12" y="15" width="1" height="1" fill="#FF0000" />
<rect x="13" y="15" width="1" height="1" fill="#FF0000" />
<rect x="18" y="15" width="1" height="1" fill="#FF0000" />
<rect x="19" y="15" width="1" height="1" fill="#FF0000" />
<rect x="20" y="15" width="1" height="1" fill="#FF0000" />
<rect x="21" y="15" width="1" height="1" fill="#FF0000" />
<rect x="22" y="15" width="1" height="1" fill="#FF0000" />
<rect x="9" y="16" width="1" height="1" fill="#FF0000" />
<rect x="10" y="16" width="1" height="1" fill="#FF0000" />
<rect x="11" y="16" width="1" height="1" fill="#FF0000" />
<rect x="12" y="16" width="1" height="1" fill="#FF0000" />
<rect x="13" y="16" width="1" height="1" fill="#FF0000" />
<rect x="9" y="17" width="1" height="1" fill="#FF0000" />
<rect x="10" y="17" width="1" height="1" fill="#FF0000" />
<rect x="11" y="17" width="1" height="1" fill="#FF0000" />
<rect x="12" y="17" width="1" height="1" fill="#FF0000" />
<rect x="13" y="17" width="1" height="1" fill="#FF0000" />
</svg>